<svg width="428" height="126" viewBox="0 0 428 126" fill="none" xmlns="http://www.w3.org/2000/svg">
<g clip-path="url(#clip0_208_327)">
<path d="M125.679 28.9655C125.679 13.1398 112.85 0.310547 97.0241 0.310547C81.1984 0.310547 68.3691 13.1398 68.3691 28.9655C68.3691 44.7913 81.1984 57.6205 97.0241 57.6205C112.85 57.6205 125.679 44.7913 125.679 28.9655Z" fill="#5000FE"/>
<path d="M57.6205 0.310547H0.310547V57.6205H57.6205V0.310547Z" fill="#5000FE"/>
<path d="M57.6205 97.0241C57.6205 81.1984 44.7913 68.3691 28.9655 68.3691C13.1398 68.3691 0.310547 81.1984 0.310547 97.0241C0.310547 112.85 13.1398 125.679 28.9655 125.679C44.7913 125.679 57.6205 112.85 57.6205 97.0241Z" fill="#9664FA"/>
<path d="M125.679 68.3691H68.3691V125.679H125.679V68.3691Z" fill="#9664FA"/>
<path d="M176.299 12.4998H159.439V1.25977H205.349V12.4998H188.489V56.6698H176.299V12.4998Z" fill="#5000FE"/>
<path d="M251.739 12.1098V1.25977H209.939V23.3498H222.049V12.1098H251.739Z" fill="#5000FE"/>
<path d="M222.049 45.8296V34.1896H248.179V23.3496H222.049V34.0496H209.939V56.6796H252.139V45.8296H222.049Z" fill="#5000FE"/>
<path d="M255.779 29.1305V28.9705C255.779 13.2205 267.649 0.310547 284.669 0.310547C295.119 0.310547 301.369 3.79055 306.519 8.86055L298.759 17.8005C294.489 13.9205 290.129 11.5505 284.589 11.5505C275.249 11.5505 268.519 19.3105 268.519 28.8105V28.9705C268.519 38.4705 275.089 46.3905 284.589 46.3905C290.919 46.3905 294.799 43.8605 299.159 39.9005L306.919 47.7405C301.219 53.8305 294.889 57.6405 284.199 57.6405C267.889 57.6405 255.779 45.0505 255.779 29.1405V29.1305Z" fill="#5000FE"/>
<path d="M311.91 1.25977H324.1V23.1898H346.58V1.25977H358.77V56.6698H346.58V34.4298H324.1V56.6698H311.91V1.25977Z" fill="#5000FE"/>
<path d="M159.439 116.729L166.649 108.089C171.639 112.209 176.879 114.829 183.219 114.829C188.219 114.829 191.229 112.849 191.229 109.599V109.439C191.229 106.349 189.329 104.759 180.049 102.389C168.869 99.5391 161.659 96.4391 161.659 85.4291V85.2691C161.659 75.1991 169.749 68.5391 181.079 68.5391C189.169 68.5391 196.059 71.0791 201.689 75.5891L195.349 84.7891C190.439 81.3791 185.599 79.3191 180.919 79.3191C176.239 79.3191 173.789 81.4591 173.789 84.1591V84.3191C173.789 87.9691 176.169 89.1591 185.759 91.6091C197.019 94.5391 203.359 98.5891 203.359 108.259V108.419C203.359 119.439 194.959 125.619 182.989 125.619C174.589 125.619 166.099 122.689 159.449 116.739L159.439 116.729Z" fill="#9664FA"/>
<path d="M251.069 80.1884V69.3184H209.219V91.4384H221.349V80.1884H251.069Z" fill="#9664FA"/>
<path d="M221.349 113.947V102.298H247.509V91.4375H221.349V102.147H209.219V124.807H251.469V113.947H221.349Z" fill="#9664FA"/>
<path d="M257.58 69.3184H282.95C290.01 69.3184 295.47 71.2984 299.12 74.9484C302.21 78.0384 303.88 82.3984 303.88 87.6284V87.7884C303.88 96.7484 299.04 102.378 291.99 104.988L305.54 124.808H291.27L279.38 107.048H269.79V124.808H257.58V69.3184ZM282.15 96.2784C288.09 96.2784 291.5 93.1084 291.5 88.4284V88.2684C291.5 83.0384 287.85 80.3384 281.91 80.3384H269.78V96.2684H282.15V96.2784Z" fill="#9664FA"/>
<path d="M303.799 69.3184H317.279L331.789 108.398L346.299 69.3184H359.459L337.029 125.208H326.249L303.819 69.3184H303.799Z" fill="#9664FA"/>
<path d="M351.619 112.129H364.459V124.809H351.619V112.129Z" fill="#9664FA"/>
<path d="M373.49 112.768V112.608C373.49 103.568 380.62 99.1284 390.85 99.1284C395.53 99.1284 398.86 99.8384 402.11 100.868V99.8384C402.11 93.8884 398.46 90.7184 391.73 90.7184C387.05 90.7184 383.56 91.7484 379.76 93.3384L377.14 85.8084C381.82 83.7484 386.34 82.3984 392.99 82.3984C399.25 82.3984 403.93 84.0584 406.86 87.0784C409.95 90.0884 411.38 94.5284 411.38 99.9984V124.808H402.03V119.578C399.18 122.988 394.82 125.678 388.4 125.678C380.55 125.678 373.5 121.158 373.5 112.758L373.49 112.768ZM402.26 109.748V106.898C399.8 105.948 396.55 105.238 392.75 105.238C386.57 105.238 382.92 107.858 382.92 112.218V112.378C382.92 116.418 386.49 118.718 391.09 118.718C397.43 118.718 402.27 115.068 402.27 109.758L402.26 109.748Z" fill="#9664FA"/>
<path d="M418.59 82.959H428.26V124.819H418.59V82.959Z" fill="#9664FA"/>
<path opacity="0.6" d="M428.271 68.3691H418.131V77.3391H428.271V68.3691Z" fill="#5400FE"/>
</g>
<defs>
<clipPath id="clip0_208_327">
<rect width="428" height="126" fill="white"/>
</clipPath>
</defs>
</svg>
