<svg width="870" height="284" viewBox="0 0 870 284" fill="none" xmlns="http://www.w3.org/2000/svg">
<path d="M0.0100098 93.6499H32.8701C37.0201 93.6499 41.23 94.0999 45.48 94.9699C49.74 95.8499 53.5501 97.3599 56.9301 99.4899C60.3001 101.62 63.0501 104.5 65.1801 108.13C67.3101 111.77 68.3701 116.33 68.3701 121.84C68.3701 127.66 66.59 132.71 63.05 137.02C59.5 141.33 54.75 144.16 48.8 145.51V145.82C55.95 146.65 61.88 149.43 66.59 154.15C71.3 158.88 73.66 165.29 73.66 173.38C73.66 177.95 72.7 182.13 70.78 185.92C68.86 189.71 66.1501 192.93 62.6201 195.58C59.0901 198.23 54.79 200.28 49.72 201.73C44.65 203.18 38.95 203.91 32.63 203.91H0V93.6499H0.0100098ZM11.22 141.93H33.8C36.5 141.93 39.23 141.62 41.97 141C44.72 140.38 47.24 139.31 49.52 137.81C51.81 136.31 53.65 134.31 55.05 131.82C56.45 129.33 57.15 126.27 57.15 122.63C57.15 118.99 56.45 116.12 55.05 113.68C53.65 111.24 51.7501 109.24 49.3701 107.68C46.9801 106.12 44.18 105.01 40.96 104.33C37.74 103.65 34.3201 103.32 30.6801 103.32H11.21V141.94L11.22 141.93ZM11.22 194.25H32.09C36.14 194.25 40 193.86 43.69 193.08C47.37 192.3 50.59 191.06 53.34 189.34C56.09 187.63 58.3 185.39 59.96 182.64C61.62 179.89 62.45 176.59 62.45 172.75C62.45 165.48 59.9801 160.06 55.0601 156.48C50.1301 152.9 43.15 151.11 34.11 151.11H11.22V194.25Z" fill="black"/>
<path d="M111.36 103C111.36 105.18 110.58 106.97 109.03 108.37C107.47 109.77 105.76 110.47 103.89 110.47C102.02 110.47 100.31 109.77 98.7501 108.37C97.1901 106.97 96.4102 105.18 96.4102 103C96.4102 100.82 97.1901 99.03 98.7501 97.63C100.31 96.23 102.02 95.53 103.89 95.53C105.76 95.53 107.47 96.23 109.03 97.63C110.59 99.03 111.36 100.82 111.36 103ZM109.18 203.91H98.5901V131.03H109.18V203.91Z" fill="black"/>
<path d="M197.32 191.6C194.21 196.27 190.16 199.8 185.17 202.19C180.18 204.58 175.05 205.77 169.75 205.77C164.04 205.77 158.88 204.78 154.26 202.81C149.64 200.84 145.69 198.14 142.42 194.71C139.15 191.28 136.6 187.23 134.79 182.56C132.97 177.89 132.06 172.85 132.06 167.45C132.06 162.05 132.97 157.02 134.79 152.34C136.6 147.67 139.15 143.62 142.42 140.19C145.69 136.77 149.63 134.06 154.26 132.09C158.88 130.12 164.04 129.13 169.75 129.13C175.05 129.13 180.19 130.35 185.17 132.79C190.15 135.23 194.2 138.84 197.32 143.61H197.63V86.1499H208.22V203.88H197.63V191.58H197.32V191.6ZM143.28 167.47C143.28 171.52 143.9 175.34 145.15 178.92C146.4 182.5 148.19 185.62 150.52 188.27C152.85 190.92 155.73 193 159.16 194.5C162.59 196.01 166.48 196.76 170.84 196.76C174.89 196.76 178.63 196.01 182.05 194.5C185.47 193 188.43 190.94 190.93 188.35C193.42 185.76 195.37 182.67 196.77 179.08C198.17 175.5 198.87 171.63 198.87 167.48C198.87 163.33 198.17 159.46 196.77 155.88C195.37 152.3 193.42 149.18 190.93 146.54C188.44 143.89 185.48 141.82 182.05 140.31C178.62 138.8 174.88 138.05 170.84 138.05C166.48 138.05 162.59 138.83 159.16 140.38C155.73 141.94 152.85 144.04 150.52 146.69C148.18 149.34 146.39 152.45 145.15 156.03C143.9 159.61 143.28 163.43 143.28 167.48V167.47Z" fill="black"/>
<path d="M237.19 93.6499H270.05C274.2 93.6499 278.41 94.0999 282.67 94.9699C286.93 95.8499 290.74 97.3599 294.12 99.4899C297.49 101.62 300.25 104.5 302.37 108.13C304.5 111.77 305.56 116.33 305.56 121.84C305.56 127.66 303.78 132.71 300.24 137.02C296.69 141.33 291.94 144.16 285.99 145.51V145.82C293.14 146.65 299.07 149.43 303.78 154.15C308.49 158.88 310.85 165.29 310.85 173.38C310.85 177.95 309.89 182.13 307.97 185.92C306.05 189.71 303.34 192.93 299.81 195.58C296.29 198.23 291.98 200.28 286.91 201.73C281.84 203.18 276.13 203.91 269.82 203.91H237.18V93.6499H237.19ZM248.4 141.93H270.98C273.68 141.93 276.4 141.62 279.15 141C281.9 140.38 284.42 139.31 286.7 137.81C288.99 136.31 290.83 134.31 292.23 131.82C293.63 129.33 294.33 126.27 294.33 122.63C294.33 118.99 293.63 116.12 292.23 113.68C290.83 111.24 288.93 109.24 286.54 107.68C284.15 106.12 281.35 105.01 278.13 104.33C274.91 103.65 271.49 103.32 267.85 103.32H248.39V141.94L248.4 141.93ZM248.4 194.25H269.27C273.32 194.25 277.18 193.86 280.87 193.08C284.55 192.3 287.77 191.06 290.52 189.34C293.27 187.63 295.48 185.39 297.14 182.64C298.8 179.89 299.63 176.59 299.63 172.75C299.63 165.48 297.16 160.06 292.24 156.48C287.31 152.9 280.32 151.11 271.29 151.11H248.4V194.25Z" fill="black"/>
<path d="M335.45 139.44C335.34 136.33 335.19 133.52 334.98 131.03H345.1C345.31 133 345.46 135.18 345.57 137.57C345.68 139.96 345.73 141.93 345.73 143.49H346.04C348.11 139.24 351.23 135.78 355.39 133.13C359.54 130.48 364.21 129.16 369.41 129.16C370.76 129.16 371.98 129.21 373.07 129.32C374.16 129.43 375.28 129.63 376.42 129.94L375.02 140.06C374.4 139.85 373.36 139.65 371.91 139.44C370.45 139.23 369 139.13 367.55 139.13C364.74 139.13 362.05 139.65 359.45 140.69C356.85 141.72 354.59 143.36 352.67 145.58C350.75 147.81 349.19 150.65 348 154.12C346.8 157.59 346.21 161.76 346.21 166.63V203.92H335.62V147.08C335.62 145.11 335.57 142.56 335.47 139.45L335.45 139.44Z" fill="black"/>
<path d="M526.69 131.03C526.9 133 527.05 135.18 527.15 137.57C527.26 139.96 527.31 141.93 527.31 143.49H527.62C529.69 139.24 533.07 135.78 537.74 133.13C542.41 130.48 547.34 129.16 552.53 129.16C561.77 129.16 568.7 131.91 573.32 137.41C577.94 142.91 580.25 150.18 580.25 159.21V203.91H569.66V163.57C569.66 159.73 569.35 156.25 568.73 153.14C568.1 150.03 567.04 147.35 565.54 145.12C564.03 142.89 562.01 141.15 559.46 139.91C556.92 138.66 553.72 138.04 549.89 138.04C547.08 138.04 544.36 138.61 541.71 139.75C539.06 140.89 536.7 142.63 534.63 144.96C532.55 147.3 530.89 150.26 529.65 153.84C528.4 157.42 527.78 161.65 527.78 166.53V203.91H517.19V147.07C517.19 145.1 517.14 142.55 517.04 139.44C516.93 136.33 516.78 133.52 516.57 131.03H526.69Z" fill="black"/>
<path d="M441.76 131.8C439.01 130.04 435.89 128.76 432.42 127.99C428.94 127.21 425.44 126.82 421.91 126.82C416.2 126.82 410.62 127.68 405.17 129.39C399.72 131.1 394.87 133.47 390.61 136.48L397.62 148.78C400.63 146.6 404.08 144.81 407.98 143.41C411.87 142.01 415.64 141.31 419.27 141.31C423.84 141.31 427.29 142.09 429.63 143.65C431.97 145.21 433.13 147.81 433.13 151.44C433.13 152.06 433.1 152.71 433.05 153.39C433 154.07 432.87 155.03 432.66 156.27C426.53 156.27 420.28 156.63 413.89 157.36C407.51 158.09 401.72 159.52 396.53 161.64C391.34 163.77 387.11 166.73 383.84 170.52C380.57 174.31 378.93 179.27 378.93 185.39C378.93 189.23 379.66 192.42 381.11 194.97C382.56 197.52 384.43 199.54 386.72 201.04C389 202.55 391.55 203.61 394.35 204.23C397.15 204.85 399.85 205.16 402.45 205.16C412.83 205.16 420.93 201.69 426.75 194.73H427.06C426.44 197.85 426.13 200.8 426.13 203.61H442.95C442.95 201.53 443.13 198.94 443.5 195.82C443.86 192.71 444.3 189.7 444.82 186.79L450.27 156.42C450.48 155.38 450.63 154.19 450.74 152.84C450.84 151.49 450.89 150.35 450.89 149.41C450.89 145.15 450.06 141.6 448.4 138.74C446.74 135.89 444.53 133.58 441.78 131.81L441.76 131.8ZM430 174.01C429.48 176.5 428.63 178.81 427.43 180.94C426.24 183.07 424.73 184.94 422.91 186.55C421.09 188.16 418.96 189.43 416.53 190.37C414.09 191.3 411.47 191.77 408.66 191.77C407.1 191.77 405.6 191.62 404.14 191.3C402.69 190.99 401.39 190.47 400.25 189.74C399.11 189.01 398.2 188.05 397.52 186.86C396.84 185.67 396.51 184.19 396.51 182.42C396.51 179.51 397.52 177.2 399.55 175.49C401.58 173.78 404.17 172.45 407.34 171.52C410.51 170.58 413.98 169.99 417.77 169.73C421.56 169.47 425.22 169.34 428.75 169.34H430.93L429.99 174.01H430Z" fill="#5000FE"/>
<mask id="mask0_418_2706" style="mask-type:luminance" maskUnits="userSpaceOnUse" x="378" y="126" width="73" height="80">
<path d="M441.76 131.8C439.01 130.04 435.89 128.76 432.42 127.99C428.94 127.21 425.44 126.82 421.91 126.82C416.2 126.82 410.62 127.68 405.17 129.39C399.72 131.1 394.87 133.47 390.61 136.48L397.62 148.78C400.63 146.6 404.08 144.81 407.98 143.41C411.87 142.01 415.64 141.31 419.27 141.31C423.84 141.31 427.29 142.09 429.63 143.65C431.97 145.21 433.13 147.81 433.13 151.44C433.13 152.06 433.1 152.71 433.05 153.39C433 154.07 432.87 155.03 432.66 156.27C426.53 156.27 420.28 156.63 413.89 157.36C407.51 158.09 401.72 159.52 396.53 161.64C391.34 163.77 387.11 166.73 383.84 170.52C380.57 174.31 378.93 179.27 378.93 185.39C378.93 189.23 379.66 192.42 381.11 194.97C382.56 197.52 384.43 199.54 386.72 201.04C389 202.55 391.55 203.61 394.35 204.23C397.15 204.85 399.85 205.16 402.45 205.16C412.83 205.16 420.93 201.69 426.75 194.73H427.06C426.44 197.85 426.13 200.8 426.13 203.61H442.95C442.95 201.53 443.13 198.94 443.5 195.82C443.86 192.71 444.3 189.7 444.82 186.79L450.27 156.42C450.48 155.38 450.63 154.19 450.74 152.84C450.84 151.49 450.89 150.35 450.89 149.41C450.89 145.15 450.06 141.6 448.4 138.74C446.74 135.89 444.53 133.58 441.78 131.81L441.76 131.8ZM430 174.01C429.48 176.5 428.63 178.81 427.43 180.94C426.24 183.07 424.73 184.94 422.91 186.55C421.09 188.16 418.96 189.43 416.53 190.37C414.09 191.3 411.47 191.77 408.66 191.77C407.1 191.77 405.6 191.62 404.14 191.3C402.69 190.99 401.39 190.47 400.25 189.74C399.11 189.01 398.2 188.05 397.52 186.86C396.84 185.67 396.51 184.19 396.51 182.42C396.51 179.51 397.52 177.2 399.55 175.49C401.58 173.78 404.17 172.45 407.34 171.52C410.51 170.58 413.98 169.99 417.77 169.73C421.56 169.47 425.22 169.34 428.75 169.34H430.93L429.99 174.01H430Z" fill="white"/>
</mask>
<g mask="url(#mask0_418_2706)">
<path d="M501.79 92.4099H378.88V205.47H501.79V92.4099Z" fill="#5000FE"/>
</g>
<path d="M464.26 203.6H482.48L495.72 128.85H477.34L464.26 203.6Z" fill="#9664FA"/>
<mask id="mask1_418_2706" style="mask-type:luminance" maskUnits="userSpaceOnUse" x="464" y="128" width="32" height="76">
<path d="M464.26 203.6H482.48L495.72 128.85H477.34L464.26 203.6Z" fill="white"/>
</mask>
<g mask="url(#mask1_418_2706)">
<path d="M501.79 92.4099H378.88V205.47H501.79V92.4099Z" fill="#9664FA"/>
</g>
<path d="M498.75 95.2899C496.72 93.3699 494.21 92.4099 491.2 92.4099C488.19 92.4099 485.54 93.4699 483.26 95.5999C480.98 97.7299 479.83 100.46 479.83 103.78C479.83 107.1 480.89 109.85 483.02 111.72C485.15 113.59 487.72 114.52 490.73 114.52C493.74 114.52 496.47 113.38 498.6 111.09C500.73 108.81 501.79 106.16 501.79 103.15C501.79 99.8299 500.78 97.2099 498.75 95.2899Z" fill="#9664FA"/>
<mask id="mask2_418_2706" style="mask-type:luminance" maskUnits="userSpaceOnUse" x="479" y="92" width="23" height="23">
<path d="M498.75 95.2899C496.72 93.3699 494.21 92.4099 491.2 92.4099C488.19 92.4099 485.54 93.4699 483.26 95.5999C480.98 97.7299 479.83 100.46 479.83 103.78C479.83 107.1 480.89 109.85 483.02 111.72C485.15 113.59 487.72 114.52 490.73 114.52C493.74 114.52 496.47 113.38 498.6 111.09C500.73 108.81 501.79 106.16 501.79 103.15C501.79 99.8299 500.78 97.2099 498.75 95.2899Z" fill="white"/>
</mask>
<g mask="url(#mask2_418_2706)">
<path d="M501.79 92.4099H378.88V205.47H501.79V92.4099Z" fill="#9664FA"/>
</g>
<path d="M0.00976562 239.94H12.6398C13.8598 239.94 15.0598 240.08 16.2598 240.37C17.4498 240.66 18.5098 241.13 19.4398 241.79C20.3698 242.45 21.1198 243.29 21.6998 244.33C22.2798 245.37 22.5698 246.62 22.5698 248.08C22.5698 249.91 22.0498 251.42 21.0098 252.61C19.9698 253.8 18.6098 254.65 16.9398 255.17V255.26C18.9798 255.53 20.6598 256.33 21.9698 257.64C23.2798 258.95 23.9398 260.7 23.9398 262.9C23.9398 264.67 23.5898 266.16 22.8898 267.36C22.1898 268.57 21.2698 269.53 20.1198 270.27C18.9798 271 17.6598 271.53 16.1898 271.85C14.7198 272.17 13.2098 272.33 11.6798 272.33H0.00976562V239.93V239.94ZM5.77979 253.12H10.8998C12.8198 253.12 14.2898 252.74 15.2898 251.97C16.2898 251.21 16.7998 250.12 16.7998 248.72C16.7998 247.32 16.2798 246.22 15.2398 245.61C14.1998 245 12.5898 244.69 10.3898 244.69H5.76978V253.11L5.77979 253.12ZM5.77979 267.49H10.9498C11.6798 267.49 12.4698 267.44 13.3298 267.33C14.1798 267.22 14.9698 267 15.6898 266.66C16.4098 266.33 16.9998 265.84 17.4698 265.2C17.9398 264.56 18.1798 263.71 18.1798 262.64C18.1798 260.93 17.5998 259.74 16.4398 259.07C15.2798 258.4 13.5198 258.07 11.1798 258.07H5.77979V267.49Z" fill="black"/>
<path d="M26.0498 250.37H32.1298L38.2598 266.34H38.3498L43.7998 250.37H49.5198L39.1298 277.05C38.7298 278.06 38.3098 278.95 37.8498 279.73C37.3898 280.51 36.8398 281.16 36.1998 281.7C35.5598 282.23 34.7998 282.64 33.9298 282.91C33.0598 283.19 32.0198 283.32 30.7998 283.32C30.3398 283.32 29.8798 283.3 29.4098 283.25C28.9398 283.21 28.4498 283.12 27.9698 283L28.4298 278.24C28.7998 278.36 29.1498 278.45 29.5098 278.49C29.8698 278.53 30.1898 278.56 30.4898 278.56C31.0698 278.56 31.5598 278.49 31.9498 278.35C32.3398 278.21 32.6798 278 32.9598 277.71C33.2298 277.42 33.4798 277.06 33.6898 276.63C33.8998 276.2 34.1298 275.7 34.3798 275.12L35.4798 272.33L26.0498 250.36V250.37Z" fill="black"/>
<path d="M625.266 198.52L644.463 82.8837H683.536C692.57 82.8837 699.703 84.5023 704.935 87.7395C710.205 90.9767 713.762 95.362 715.607 100.895C717.489 106.429 717.865 112.621 716.736 119.472C715.607 126.247 713.179 132.421 709.452 137.992C705.763 143.563 700.757 148.004 694.433 151.317C688.147 154.629 680.524 156.286 671.566 156.286H643.56L645.593 143.864H673.146C679.32 143.864 684.477 142.791 688.617 140.645C692.758 138.5 695.995 135.583 698.329 131.894C700.663 128.205 702.206 124.064 702.959 119.472C703.712 114.804 703.524 110.663 702.394 107.05C701.303 103.399 699.025 100.538 695.562 98.4675C692.137 96.3595 687.3 95.3055 681.051 95.3055H656.433L639.269 198.52H625.266ZM724.231 198.52L738.686 111.793H751.56L749.301 124.892H750.204C752.463 120.601 755.907 117.119 760.537 114.447C765.167 111.774 770.079 110.438 775.274 110.438C776.29 110.438 777.514 110.456 778.944 110.494C780.375 110.494 781.485 110.551 782.275 110.663L780.017 124.215C779.565 124.102 778.549 123.932 776.968 123.706C775.387 123.443 773.693 123.311 771.886 123.311C767.67 123.311 763.774 124.196 760.198 125.965C756.622 127.697 753.63 130.106 751.221 133.192C748.812 136.241 747.268 139.723 746.591 143.638L737.557 198.52H724.231ZM817.198 200.327C808.879 200.327 802.009 198.482 796.589 194.793C791.168 191.067 787.385 185.872 785.24 179.21C783.094 172.509 782.755 164.717 784.223 155.834C785.691 146.95 788.609 139.121 792.975 132.345C797.342 125.532 802.781 120.225 809.293 116.423C815.805 112.583 822.957 110.663 830.749 110.663C835.266 110.663 839.614 111.416 843.792 112.922C847.97 114.428 851.584 116.874 854.633 120.262C857.682 123.612 859.809 128.054 861.013 133.587C862.218 139.121 862.142 145.934 860.787 154.027L859.884 159.673H793.032L794.839 148.155H848.14C849.005 143.261 848.78 138.895 847.462 135.056C846.182 131.216 843.943 128.186 840.743 125.965C837.581 123.744 833.572 122.634 828.716 122.634C823.71 122.634 819.042 123.989 814.714 126.699C810.385 129.372 806.771 132.759 803.873 136.862C800.974 140.928 799.167 145.068 798.452 149.284L796.871 159.222C795.742 166.411 795.911 172.133 797.379 176.386C798.885 180.64 801.501 183.708 805.228 185.59C808.954 187.434 813.622 188.357 819.231 188.357C822.807 188.357 826.1 187.867 829.112 186.889C832.123 185.872 834.814 184.367 837.186 182.372C839.557 180.339 841.552 177.817 843.171 174.806L855.367 178.419C853.297 182.786 850.379 186.625 846.615 189.938C842.889 193.212 838.522 195.772 833.516 197.617C828.547 199.423 823.108 200.327 817.198 200.327Z" fill="#231F20"/>
<path d="M137.72 0H0.00976562V63.65H167.72L137.72 0Z" fill="#5000FE"/>
<path d="M28.1602 15.8899H40.5801C41.7801 15.8899 42.9601 16.0299 44.1401 16.3199C45.3101 16.6099 46.3501 17.0699 47.2701 17.7099C48.1801 18.3599 48.9301 19.1899 49.5001 20.2099C50.0701 21.2299 50.3602 22.4599 50.3602 23.8999C50.3602 25.6999 49.8501 27.1899 48.8301 28.3599C47.8101 29.5299 46.4701 30.3699 44.8301 30.8799V30.9699C46.8401 31.2399 48.4902 32.0199 49.7802 33.3099C51.0702 34.5999 51.7202 36.3199 51.7202 38.4899C51.7202 40.2299 51.3702 41.6899 50.6802 42.8799C49.9902 44.0699 49.0801 45.0199 47.9601 45.7399C46.8401 46.4599 45.5401 46.9799 44.0901 47.2899C42.6301 47.5999 41.1602 47.7599 39.6602 47.7599H28.1802V15.8999L28.1602 15.8899ZM33.8301 28.8599H38.8702C40.7602 28.8599 42.2001 28.4899 43.1901 27.7399C44.1801 26.9899 44.6702 25.9299 44.6702 24.5399C44.6702 23.1499 44.1601 22.0799 43.1401 21.4799C42.1201 20.8799 40.5302 20.5799 38.3702 20.5799H33.8201V28.8599H33.8301ZM33.8301 42.9899H38.9102C39.6302 42.9899 40.4101 42.9399 41.2501 42.8299C42.0901 42.7299 42.8601 42.5099 43.5701 42.1799C44.2701 41.8499 44.8601 41.3699 45.3201 40.7399C45.7801 40.1099 46.0201 39.2699 46.0201 38.2199C46.0201 36.5399 45.4502 35.3699 44.3102 34.7099C43.1702 34.0499 41.4401 33.7199 39.1301 33.7199H33.8201V42.9899H33.8301Z" fill="white"/>
<path d="M58.3896 15.8899H79.4996V20.8399H64.0597V28.9399H78.6797V33.7099H64.0597V42.7099H80.3097V47.7499H58.3896V15.8899Z" fill="white"/>
<path d="M93.3997 20.8399H83.6396V15.8899H108.84V20.8399H99.0797V47.7499H93.4097V20.8399H93.3997Z" fill="white"/>
<path d="M120.94 15.8899H125.84L139.57 47.7499H133.09L130.12 40.4599H116.31L113.43 47.7499H107.08L120.94 15.8899ZM128.14 35.6099L123.24 22.6499L118.24 35.6099H128.14Z" fill="white"/>
<path d="M102.021 246.85C102.021 242.68 98.6406 239.3 94.4709 239.3C90.3011 239.3 86.9209 242.68 86.9209 246.85C86.9209 251.02 90.3011 254.4 94.4709 254.4C98.6406 254.4 102.021 251.02 102.021 246.85Z" fill="#5000FE"/>
<path d="M84.0804 239.3H68.9805V254.4H84.0804V239.3Z" fill="#5000FE"/>
<path d="M84.0804 264.78C84.0804 260.61 80.7002 257.23 76.5305 257.23C72.3607 257.23 68.9805 260.61 68.9805 264.78C68.9805 268.95 72.3607 272.33 76.5305 272.33C80.7002 272.33 84.0804 268.95 84.0804 264.78Z" fill="#9664FA"/>
<path d="M102.021 257.23H86.9209V272.33H102.021V257.23Z" fill="#9664FA"/>
<path d="M131.191 246.33H121.471V239.85H147.941V246.33H138.221V271.79H131.191V246.33Z" fill="#5000FE"/>
<path d="M174.681 246.1V239.85H150.591V252.58H157.571V246.1H174.681Z" fill="#5000FE"/>
<path d="M157.571 265.54V258.83H172.631V252.58H157.571V258.74H150.591V271.79H174.911V265.54H157.571Z" fill="#5000FE"/>
<path d="M177.011 255.91V255.82C177.011 246.74 183.861 239.3 193.671 239.3C199.691 239.3 203.301 241.31 206.261 244.23L201.791 249.39C199.331 247.15 196.821 245.79 193.621 245.79C188.241 245.79 184.361 250.26 184.361 255.74V255.83C184.361 261.31 188.151 265.87 193.621 265.87C197.271 265.87 199.511 264.41 202.021 262.13L206.491 266.65C203.201 270.16 199.551 272.35 193.391 272.35C183.991 272.35 177.011 265.09 177.011 255.92V255.91Z" fill="#5000FE"/>
<path d="M209.36 239.85H216.39V252.49H229.35V239.85H236.38V271.79H229.35V258.97H216.39V271.79H209.36V239.85Z" fill="#5000FE"/>
<path d="M240.44 267.17L244.6 262.19C247.48 264.57 250.49 266.07 254.15 266.07C257.03 266.07 258.77 264.93 258.77 263.05V262.96C258.77 261.18 257.67 260.26 252.33 258.89C245.89 257.24 241.73 255.46 241.73 249.11V249.02C241.73 243.22 246.39 239.38 252.92 239.38C257.58 239.38 261.56 240.84 264.8 243.45L261.14 248.75C258.31 246.78 255.52 245.6 252.82 245.6C250.12 245.6 248.71 246.83 248.71 248.39V248.48C248.71 250.58 250.08 251.27 255.61 252.68C262.1 254.37 265.75 256.7 265.75 262.28V262.37C265.75 268.72 260.91 272.29 254.01 272.29C249.17 272.29 244.28 270.6 240.44 267.17Z" fill="#9664FA"/>
<path d="M293.271 246.11V239.85H269.141V252.6H276.131V246.11H293.271Z" fill="#9664FA"/>
<path d="M276.131 265.57V258.86H291.211V252.6H276.131V258.77H269.141V271.83H293.491V265.57H276.131Z" fill="#9664FA"/>
<path d="M297.011 239.85H311.631C315.701 239.85 318.851 240.99 320.951 243.09C322.731 244.87 323.691 247.39 323.691 250.4V250.49C323.691 255.65 320.901 258.9 316.841 260.41L324.651 271.83H316.431L309.581 261.59H304.051V271.83H297.011V239.84V239.85ZM311.181 255.38C314.611 255.38 316.571 253.55 316.571 250.86V250.77C316.571 247.75 314.471 246.2 311.041 246.2H304.051V255.38H311.181Z" fill="#9664FA"/>
<path d="M323.66 239.85H331.43L339.79 262.38L348.15 239.85H355.73L342.8 272.06H336.59L323.66 239.85Z" fill="#9664FA"/>
<path d="M351.221 264.52H358.621V271.83H351.221V264.52Z" fill="#9664FA"/>
<path d="M363.83 264.89V264.8C363.83 259.59 367.94 257.03 373.84 257.03C376.54 257.03 378.46 257.44 380.33 258.04V257.45C380.33 254.02 378.23 252.19 374.34 252.19C371.64 252.19 369.63 252.78 367.44 253.7L365.93 249.36C368.63 248.17 371.23 247.4 375.07 247.4C378.68 247.4 381.38 248.36 383.07 250.1C384.85 251.84 385.67 254.4 385.67 257.55V271.85H380.28V268.83C378.63 270.8 376.12 272.35 372.42 272.35C367.9 272.35 363.83 269.74 363.83 264.9V264.89ZM380.41 263.15V261.5C378.99 260.95 377.12 260.54 374.93 260.54C371.37 260.54 369.26 262.05 369.26 264.56V264.65C369.26 266.98 371.32 268.31 373.97 268.31C377.63 268.31 380.41 266.21 380.41 263.15Z" fill="#9664FA"/>
<path d="M389.83 247.71H395.41V271.84H389.83V247.71Z" fill="#9664FA"/>
<path opacity="0.6" d="M395.401 239.3H389.561V244.47H395.401V239.3Z" fill="#5400FE"/>
</svg>
