<svg width="443" height="200" viewBox="0 0 443 200" fill="none" xmlns="http://www.w3.org/2000/svg">
<g clip-path="url(#clip0_407_28)">
<rect width="442.66" height="200" fill="#282828"/>
<rect x="16" y="19" width="10" height="10" rx="5" fill="#EF4444" fill-opacity="0.8"/>
<rect x="32" y="19" width="10" height="10" rx="5" fill="#EAB308" fill-opacity="0.8"/>
<rect x="48" y="19" width="10" height="10" rx="5" fill="#22C55E" fill-opacity="0.8"/>
<path d="M73.32 28H72.72V20.71H73.41V24.1C73.75 23.39 74.41 23.03 75.23 23.03C76.64 23.03 77.46 24.13 77.46 25.59C77.46 27.04 76.62 28.12 75.21 28.12C74.4 28.12 73.73 27.76 73.39 27.01L73.32 28ZM73.42 25.57C73.42 26.69 74.04 27.49 75.1 27.49C76.15 27.49 76.76 26.69 76.76 25.57C76.76 24.46 76.15 23.65 75.1 23.65C74.04 23.65 73.42 24.46 73.42 25.57ZM78.8998 21.83C78.6198 21.83 78.3898 21.6 78.3898 21.32C78.3898 21.04 78.6198 20.8 78.8998 20.8C79.1798 20.8 79.4198 21.04 79.4198 21.32C79.4198 21.6 79.1798 21.83 78.8998 21.83ZM78.5598 28V23.16H79.2498V28H78.5598ZM82.5888 28.12C81.1788 28.12 80.3488 27.04 80.3488 25.59C80.3488 24.13 81.1788 23.03 82.6188 23.03C83.4188 23.03 84.0588 23.38 84.3988 24.08V20.71H85.0888V28H84.4888L84.4188 27.01C84.0788 27.76 83.3988 28.12 82.5888 28.12ZM82.7088 27.49C83.7688 27.49 84.3888 26.69 84.3888 25.57C84.3888 24.46 83.7688 23.65 82.7088 23.65C81.6588 23.65 81.0488 24.46 81.0488 25.57C81.0488 26.69 81.6588 27.49 82.7088 27.49ZM87.1286 28H86.5286V20.71H87.2186V24.1C87.5586 23.39 88.2186 23.03 89.0386 23.03C90.4486 23.03 91.2686 24.13 91.2686 25.59C91.2686 27.04 90.4286 28.12 89.0186 28.12C88.2086 28.12 87.5386 27.76 87.1986 27.01L87.1286 28ZM87.2286 25.57C87.2286 26.69 87.8486 27.49 88.9086 27.49C89.9586 27.49 90.5686 26.69 90.5686 25.57C90.5686 24.46 89.9586 23.65 88.9086 23.65C87.8486 23.65 87.2286 24.46 87.2286 25.57ZM94.8984 23.1V23.72H94.5184C93.6284 23.72 93.0584 24.32 93.0584 25.24V28H92.3684V23.16H93.0184L93.0684 23.91C93.2584 23.39 93.7684 23.05 94.4484 23.05C94.5984 23.05 94.7284 23.06 94.8984 23.1ZM97.0104 28.12C95.9804 28.12 95.3704 27.54 95.3704 26.69C95.3704 25.8 96.0504 25.24 97.1804 25.15L98.7804 25.02V24.86C98.7804 23.91 98.2104 23.61 97.5004 23.61C96.6604 23.61 96.1604 23.99 96.1604 24.64H95.5304C95.5304 23.66 96.3304 23.03 97.5204 23.03C98.6404 23.03 99.4604 23.59 99.4604 24.87V28H98.8804L98.7904 27.15C98.4904 27.76 97.8304 28.12 97.0104 28.12ZM97.1704 27.56C98.1904 27.56 98.7804 26.85 98.7804 25.8V25.54L97.3504 25.65C96.4404 25.73 96.0704 26.13 96.0704 26.67C96.0704 27.26 96.5104 27.56 97.1704 27.56ZM101.185 21.83C100.905 21.83 100.675 21.6 100.675 21.32C100.675 21.04 100.905 20.8 101.185 20.8C101.465 20.8 101.705 21.04 101.705 21.32C101.705 21.6 101.465 21.83 101.185 21.83ZM100.845 28V23.16H101.535V28H100.845ZM103.664 28H102.974V23.16H103.574L103.674 24C103.994 23.38 104.634 23.03 105.334 23.03C106.664 23.03 107.214 23.82 107.214 25.04V28H106.524V25.19C106.524 24.06 106.014 23.66 105.214 23.66C104.224 23.66 103.664 24.38 103.664 25.47V28ZM108.469 28.78V28.19H112.449V28.78H108.469ZM114.875 28H114.195V23.74H113.225V23.16H114.195V21.63H114.875V23.16H115.845V23.74H114.875V28ZM118.725 28.12C117.305 28.12 116.355 27.1 116.355 25.58C116.355 24.07 117.295 23.03 118.675 23.03C119.985 23.03 120.875 23.96 120.875 25.33V25.67H117.025C117.075 26.85 117.695 27.53 118.735 27.53C119.525 27.53 120.035 27.19 120.215 26.55H120.875C120.615 27.57 119.865 28.12 118.725 28.12ZM118.675 23.62C117.765 23.62 117.165 24.22 117.045 25.17H120.185C120.185 24.24 119.585 23.62 118.675 23.62ZM124.508 23.1V23.72H124.128C123.238 23.72 122.668 24.32 122.668 25.24V28H121.978V23.16H122.628L122.678 23.91C122.868 23.39 123.378 23.05 124.058 23.05C124.208 23.05 124.338 23.06 124.508 23.1ZM126.115 28H125.425V23.16H126.025L126.105 23.85C126.345 23.34 126.885 23.03 127.565 23.03C128.325 23.03 128.895 23.43 129.125 24.06C129.345 23.43 129.935 23.03 130.715 23.03C131.765 23.03 132.455 23.71 132.455 24.83V28H131.785V24.97C131.785 24.14 131.325 23.65 130.585 23.65C129.775 23.65 129.295 24.26 129.295 25.01V28H128.615V24.96C128.615 24.14 128.145 23.66 127.415 23.66C126.605 23.66 126.115 24.26 126.115 25V28ZM134.183 21.83C133.903 21.83 133.673 21.6 133.673 21.32C133.673 21.04 133.903 20.8 134.183 20.8C134.463 20.8 134.703 21.04 134.703 21.32C134.703 21.6 134.463 21.83 134.183 21.83ZM133.843 28V23.16H134.533V28H133.843ZM136.662 28H135.972V23.16H136.572L136.672 24C136.992 23.38 137.632 23.03 138.332 23.03C139.662 23.03 140.212 23.82 140.212 25.04V28H139.522V25.19C139.522 24.06 139.012 23.66 138.212 23.66C137.222 23.66 136.662 24.38 136.662 25.47V28ZM142.977 28.12C141.947 28.12 141.337 27.54 141.337 26.69C141.337 25.8 142.017 25.24 143.147 25.15L144.747 25.02V24.86C144.747 23.91 144.177 23.61 143.467 23.61C142.627 23.61 142.127 23.99 142.127 24.64H141.497C141.497 23.66 142.297 23.03 143.487 23.03C144.607 23.03 145.427 23.59 145.427 24.87V28H144.847L144.757 27.15C144.457 27.76 143.797 28.12 142.977 28.12ZM143.137 27.56C144.157 27.56 144.747 26.85 144.747 25.8V25.54L143.317 25.65C142.407 25.73 142.037 26.13 142.037 26.67C142.037 27.26 142.477 27.56 143.137 27.56ZM147.532 28H146.842V20.71H147.532V28Z" fill="#64748B"/>
<path d="M23.0195 56.4805C22.9805 56.4492 22.9395 56.4238 22.8965 56.4043C22.8535 56.3848 22.8047 56.375 22.75 56.375C22.6953 56.375 22.6465 56.3848 22.6035 56.4043C22.5605 56.4238 22.5195 56.4492 22.4805 56.4805L21.625 57.3477L20.6523 56.375L21.5195 55.5195C21.5508 55.4805 21.5762 55.4395 21.5957 55.3965C21.6152 55.3535 21.625 55.3047 21.625 55.25C21.625 55.1484 21.5879 55.0605 21.5137 54.9863C21.4395 54.9121 21.3516 54.875 21.25 54.875C21.1953 54.875 21.1465 54.8848 21.1035 54.9043C21.0605 54.9238 21.0195 54.9492 20.9805 54.9805L20.125 55.8477L19.2695 54.9805C19.2305 54.9492 19.1895 54.9238 19.1465 54.9043C19.1035 54.8848 19.0547 54.875 19 54.875C18.8984 54.875 18.8105 54.9121 18.7363 54.9863C18.6621 55.0605 18.625 55.1484 18.625 55.25C18.625 55.3047 18.6348 55.3535 18.6543 55.3965C18.6738 55.4395 18.6992 55.4805 18.7305 55.5195L19.0352 55.8125L17.9336 56.9023C17.8008 57.043 17.6953 57.2031 17.6172 57.3828C17.5391 57.5625 17.5 57.7578 17.5 57.9688C17.5 58.1719 17.5391 58.3652 17.6172 58.5488C17.6953 58.7324 17.8008 58.8906 17.9336 59.0234L18.1914 59.2812L16.8555 60.6055C16.8242 60.6445 16.7988 60.6855 16.7793 60.7285C16.7598 60.7715 16.75 60.8203 16.75 60.875C16.75 60.9766 16.7871 61.0645 16.8613 61.1387C16.9355 61.2129 17.0234 61.25 17.125 61.25C17.1797 61.25 17.2285 61.2402 17.2715 61.2207C17.3145 61.2012 17.3555 61.1758 17.3945 61.1445L18.7188 59.8086L18.9766 60.0664C19.1094 60.1992 19.2676 60.3047 19.4512 60.3828C19.6348 60.4609 19.8281 60.5 20.0312 60.5C20.2422 60.5 20.4375 60.4609 20.6172 60.3828C20.7969 60.3047 20.957 60.1992 21.0977 60.0664L22.1875 58.9648L22.4805 59.2695C22.5195 59.3008 22.5605 59.3262 22.6035 59.3457C22.6465 59.3652 22.6953 59.375 22.75 59.375C22.8516 59.375 22.9395 59.3379 23.0137 59.2637C23.0879 59.1895 23.125 59.1016 23.125 59C23.125 58.9453 23.1152 58.8965 23.0957 58.8535C23.0762 58.8105 23.0508 58.7695 23.0195 58.7305L22.1523 57.875L23.0195 57.0195C23.0508 56.9805 23.0762 56.9395 23.0957 56.8965C23.1152 56.8535 23.125 56.8047 23.125 56.75C23.125 56.6953 23.1152 56.6465 23.0957 56.6035C23.0762 56.5605 23.0508 56.5195 23.0195 56.4805ZM20.5586 59.5273C20.4961 59.5977 20.418 59.6523 20.3242 59.6914C20.2305 59.7305 20.1328 59.75 20.0312 59.75C19.9297 59.75 19.834 59.7305 19.7441 59.6914C19.6543 59.6523 19.5742 59.5977 19.5039 59.5273L18.4727 58.4961C18.4023 58.4258 18.3477 58.3457 18.3086 58.2559C18.2695 58.166 18.25 58.0703 18.25 57.9688C18.25 57.8672 18.2695 57.7695 18.3086 57.6758C18.3477 57.582 18.4023 57.5039 18.4727 57.4414L19.5625 56.3398L21.6602 58.4375L20.5586 59.5273ZM27.1445 50.8555C27.1055 50.8242 27.0645 50.7988 27.0215 50.7793C26.9785 50.7598 26.9297 50.75 26.875 50.75C26.8203 50.75 26.7715 50.7598 26.7285 50.7793C26.6855 50.7988 26.6445 50.8242 26.6055 50.8555L25.2812 52.1914L25.0234 51.9336C24.8906 51.8008 24.7324 51.6953 24.5488 51.6172C24.3652 51.5391 24.1719 51.5 23.9688 51.5C23.7578 51.5 23.5625 51.5391 23.3828 51.6172C23.2031 51.6953 23.043 51.8008 22.9023 51.9336L21.8125 53.0352L21.5195 52.7305C21.4805 52.6992 21.4395 52.6738 21.3965 52.6543C21.3535 52.6348 21.3047 52.625 21.25 52.625C21.1484 52.625 21.0605 52.6621 20.9863 52.7363C20.9121 52.8105 20.875 52.8984 20.875 53C20.875 53.0547 20.8848 53.1035 20.9043 53.1465C20.9238 53.1895 20.9492 53.2305 20.9805 53.2695L24.7305 57.0195C24.7695 57.0508 24.8105 57.0762 24.8535 57.0957C24.8965 57.1152 24.9453 57.125 25 57.125C25.1016 57.125 25.1895 57.0879 25.2637 57.0137C25.3379 56.9395 25.375 56.8516 25.375 56.75C25.375 56.6953 25.3652 56.6465 25.3457 56.6035C25.3262 56.5605 25.3008 56.5195 25.2695 56.4805L24.9648 56.1875L26.0664 55.0977C26.1992 54.957 26.3047 54.7969 26.3828 54.6172C26.4609 54.4375 26.5 54.2422 26.5 54.0312C26.5 53.8281 26.4609 53.6348 26.3828 53.4512C26.3047 53.2676 26.1992 53.1094 26.0664 52.9766L25.8086 52.7188L27.1445 51.3945C27.1758 51.3555 27.2012 51.3145 27.2207 51.2715C27.2402 51.2285 27.25 51.1797 27.25 51.125C27.25 51.0703 27.2402 51.0215 27.2207 50.9785C27.2012 50.9355 27.1758 50.8945 27.1445 50.8555ZM25.5273 54.5586L24.4375 55.6602L22.3398 53.5625L23.4414 52.4727C23.5039 52.4023 23.582 52.3477 23.6758 52.3086C23.7695 52.2695 23.8672 52.25 23.9688 52.25C24.0703 52.25 24.166 52.2695 24.2559 52.3086C24.3457 52.3477 24.4258 52.4023 24.4961 52.4727L25.5273 53.5039C25.5977 53.5664 25.6523 53.6445 25.6914 53.7383C25.7305 53.832 25.75 53.9297 25.75 54.0312C25.75 54.1328 25.7305 54.2305 25.6914 54.3242C25.6523 54.418 25.5977 54.4961 25.5273 54.5586Z" fill="#60A5FA"/>
<path d="M40.548 61.132C38.148 61.132 36.516 59.344 36.516 56.704C36.516 54.064 38.172 52.264 40.596 52.264C42.444 52.264 43.896 53.38 44.244 55.084H43.32C42.96 53.848 41.904 53.092 40.56 53.092C38.676 53.092 37.416 54.532 37.416 56.704C37.416 58.864 38.676 60.304 40.56 60.304C41.916 60.304 42.996 59.572 43.368 58.42H44.292C43.896 60.04 42.396 61.132 40.548 61.132ZM45.1982 58.096C45.1982 56.32 46.4462 55.036 48.1502 55.036C49.8542 55.036 51.1022 56.32 51.1022 58.096C51.1022 59.86 49.8542 61.144 48.1502 61.144C46.4462 61.144 45.1982 59.86 45.1982 58.096ZM46.0382 58.084C46.0382 59.452 46.9022 60.4 48.1502 60.4C49.3862 60.4 50.2622 59.452 50.2622 58.084C50.2622 56.74 49.3862 55.78 48.1502 55.78C46.9022 55.78 46.0382 56.74 46.0382 58.084ZM53.2545 61H52.4265V55.192H53.1465L53.2665 56.2C53.6505 55.456 54.4185 55.036 55.2585 55.036C56.8545 55.036 57.5145 55.984 57.5145 57.448V61H56.6865V57.628C56.6865 56.272 56.0745 55.792 55.1145 55.792C53.9265 55.792 53.2545 56.656 53.2545 57.964V61ZM59.9928 61H59.1648V55.192H59.8848L60.0048 56.2C60.3888 55.456 61.1568 55.036 61.9968 55.036C63.5928 55.036 64.2528 55.984 64.2528 57.448V61H63.4248V57.628C63.4248 56.272 62.8128 55.792 61.8528 55.792C60.6648 55.792 59.9928 56.656 59.9928 57.964V61ZM68.3391 61.144C66.6351 61.144 65.4951 59.92 65.4951 58.096C65.4951 56.284 66.6231 55.036 68.2791 55.036C69.8511 55.036 70.9191 56.152 70.9191 57.796V58.204H66.2991C66.3591 59.62 67.1031 60.436 68.3511 60.436C69.2991 60.436 69.9111 60.028 70.1271 59.26H70.9191C70.6071 60.484 69.7071 61.144 68.3391 61.144ZM68.2791 55.744C67.1871 55.744 66.4671 56.464 66.3231 57.604H70.0911C70.0911 56.488 69.3711 55.744 68.2791 55.744ZM71.8349 58.108C71.8349 56.284 72.9509 55.036 74.6429 55.036C75.9869 55.036 76.9709 55.816 77.1989 57.016H76.3709C76.1549 56.212 75.4589 55.768 74.6549 55.768C73.4789 55.768 72.6509 56.668 72.6509 58.096C72.6509 59.476 73.4189 60.4 74.5949 60.4C75.4589 60.4 76.1549 59.92 76.3829 59.176H77.2229C76.9469 60.364 75.9149 61.144 74.5949 61.144C72.9509 61.144 71.8349 59.932 71.8349 58.108ZM79.8093 61H78.9933V55.888H77.8293V55.192H78.9933V53.356H79.8093V55.192H80.9733V55.888H79.8093V61ZM82.4595 53.596C82.1235 53.596 81.8475 53.32 81.8475 52.984C81.8475 52.648 82.1235 52.36 82.4595 52.36C82.7955 52.36 83.0835 52.648 83.0835 52.984C83.0835 53.32 82.7955 53.596 82.4595 53.596ZM82.0515 61V55.192H82.8795V61H82.0515ZM85.4342 61H84.6062V55.192H85.3262L85.4462 56.2C85.8302 55.456 86.5982 55.036 87.4382 55.036C89.0342 55.036 89.6942 55.984 89.6942 57.448V61H88.8662V57.628C88.8662 56.272 88.2542 55.792 87.2942 55.792C86.1062 55.792 85.4342 56.656 85.4342 57.964V61ZM90.9485 57.928C90.9485 56.344 91.9685 55.036 93.6725 55.036C94.6805 55.036 95.4485 55.504 95.8205 56.356L95.9045 55.192H96.6245V60.82C96.6245 62.548 95.5205 63.676 93.8165 63.676C92.3285 63.676 91.2845 62.836 91.0565 61.432H91.8845C92.0645 62.368 92.7845 62.92 93.8285 62.92C95.0165 62.92 95.8085 62.116 95.8085 60.904V59.524C95.4125 60.34 94.6085 60.82 93.6125 60.82C91.9565 60.82 90.9485 59.512 90.9485 57.928ZM91.7765 57.916C91.7765 59.104 92.5085 60.076 93.7325 60.076C94.9925 60.076 95.7365 59.164 95.7365 57.916C95.7365 56.68 95.0165 55.768 93.7445 55.768C92.4965 55.768 91.7765 56.74 91.7765 57.916ZM103.012 61H102.196V55.888H101.032V55.192H102.196V53.356H103.012V55.192H104.176V55.888H103.012V61ZM104.788 58.096C104.788 56.32 106.036 55.036 107.74 55.036C109.444 55.036 110.692 56.32 110.692 58.096C110.692 59.86 109.444 61.144 107.74 61.144C106.036 61.144 104.788 59.86 104.788 58.096ZM105.628 58.084C105.628 59.452 106.492 60.4 107.74 60.4C108.976 60.4 109.852 59.452 109.852 58.084C109.852 56.74 108.976 55.78 107.74 55.78C106.492 55.78 105.628 56.74 105.628 58.084ZM119.028 61.132C116.628 61.132 114.996 59.344 114.996 56.704C114.996 54.064 116.652 52.264 119.076 52.264C120.924 52.264 122.376 53.38 122.724 55.084H121.8C121.44 53.848 120.384 53.092 119.04 53.092C117.156 53.092 115.896 54.532 115.896 56.704C115.896 58.864 117.156 60.304 119.04 60.304C120.396 60.304 121.476 59.572 121.848 58.42H122.772C122.376 60.04 120.876 61.132 119.028 61.132ZM125.131 61H124.267V52.408H127.471C129.211 52.408 130.267 53.368 130.267 54.892C130.267 56.128 129.619 56.992 128.515 57.292L130.351 61H129.391L127.639 57.436H125.131V61ZM125.131 53.188V56.656H127.495C128.683 56.656 129.379 56.008 129.379 54.916C129.379 53.8 128.647 53.188 127.471 53.188H125.131ZM132.794 61H131.942V52.408H132.794L135.926 59.98L139.058 52.408H139.922V61H139.07V56.92C139.07 55.42 139.094 54.76 139.142 54.172L136.346 61H135.518L132.722 54.208C132.77 54.532 132.794 55.48 132.794 56.788V61ZM142.537 61.132C142.129 61.132 141.781 60.796 141.781 60.4C141.781 59.992 142.129 59.644 142.537 59.644C142.945 59.644 143.293 59.992 143.293 60.4C143.293 60.796 142.945 61.132 142.537 61.132ZM145.677 61.132C145.269 61.132 144.921 60.796 144.921 60.4C144.921 59.992 145.269 59.644 145.677 59.644C146.085 59.644 146.433 59.992 146.433 60.4C146.433 60.796 146.085 61.132 145.677 61.132ZM148.818 61.132C148.41 61.132 148.062 60.796 148.062 60.4C148.062 59.992 148.41 59.644 148.818 59.644C149.226 59.644 149.574 59.992 149.574 60.4C149.574 60.796 149.226 61.132 148.818 61.132Z" fill="#60A5FA"/>
<path d="M155.095 61.036H156.715V61.708H154.339V51.652H156.715V52.324H155.095V61.036ZM165.473 56.704C165.473 59.308 163.781 61.144 161.381 61.144C158.969 61.144 157.289 59.308 157.289 56.704C157.289 54.1 158.981 52.252 161.381 52.252C163.793 52.252 165.473 54.088 165.473 56.704ZM164.585 56.704C164.585 54.556 163.277 53.092 161.381 53.092C159.485 53.092 158.189 54.556 158.189 56.704C158.189 58.852 159.485 60.316 161.381 60.316C163.277 60.316 164.585 58.84 164.585 56.704ZM167.904 52.408V57.58L172.044 52.408H173.076L170.16 56.044L173.124 61H172.116L169.596 56.764L167.904 58.864V61H167.04V52.408H167.904ZM173.685 61.708V61.036H175.305V52.324H173.685V51.652H176.061V61.708H173.685Z" fill="#4ADE80"/>
<path d="M23.96 82.48L17.96 84.628V83.812L23.036 82.06L17.96 80.32V79.492L23.96 81.64V82.48ZM28.778 78.64C28.778 77.2 29.93 76.252 31.658 76.252C33.206 76.252 34.226 77.116 34.358 78.556H33.482C33.386 77.584 32.726 77.032 31.646 77.032C30.434 77.032 29.642 77.656 29.642 78.628C29.642 79.384 30.086 79.864 30.986 80.092L32.462 80.452C33.806 80.776 34.502 81.544 34.502 82.708C34.502 84.196 33.35 85.144 31.574 85.144C29.906 85.144 28.778 84.268 28.67 82.864H29.558C29.606 83.764 30.398 84.352 31.574 84.352C32.834 84.352 33.638 83.74 33.638 82.756C33.638 81.988 33.206 81.484 32.282 81.268L30.83 80.908C29.486 80.584 28.778 79.816 28.778 78.64ZM35.4677 82.108C35.4677 80.284 36.5837 79.036 38.2757 79.036C39.6197 79.036 40.6037 79.816 40.8317 81.016H40.0037C39.7877 80.212 39.0917 79.768 38.2877 79.768C37.1117 79.768 36.2837 80.668 36.2837 82.096C36.2837 83.476 37.0517 84.4 38.2277 84.4C39.0917 84.4 39.7877 83.92 40.0157 83.176H40.8557C40.5797 84.364 39.5477 85.144 38.2277 85.144C36.5837 85.144 35.4677 83.932 35.4677 82.108ZM43.7781 85.144C42.5421 85.144 41.8101 84.448 41.8101 83.428C41.8101 82.36 42.6261 81.688 43.9821 81.58L45.9021 81.424V81.232C45.9021 80.092 45.2181 79.732 44.3661 79.732C43.3581 79.732 42.7581 80.188 42.7581 80.968H42.0021C42.0021 79.792 42.9621 79.036 44.3901 79.036C45.7341 79.036 46.7181 79.708 46.7181 81.244V85H46.0221L45.9141 83.98C45.5541 84.712 44.7621 85.144 43.7781 85.144ZM43.9701 84.472C45.1941 84.472 45.9021 83.62 45.9021 82.36V82.048L44.1861 82.18C43.0941 82.276 42.6501 82.756 42.6501 83.404C42.6501 84.112 43.1781 84.472 43.9701 84.472ZM49.2076 85H48.3796V79.192H49.0996L49.2196 80.2C49.6036 79.456 50.3716 79.036 51.2116 79.036C52.8076 79.036 53.4676 79.984 53.4676 81.448V85H52.6396V81.628C52.6396 80.272 52.0276 79.792 51.0676 79.792C49.8796 79.792 49.2076 80.656 49.2076 81.964V85ZM55.9459 85H55.1179V79.192H55.8379L55.9579 80.2C56.3419 79.456 57.1099 79.036 57.9499 79.036C59.5459 79.036 60.2059 79.984 60.2059 81.448V85H59.3779V81.628C59.3779 80.272 58.7659 79.792 57.8059 79.792C56.6179 79.792 55.9459 80.656 55.9459 81.964V85ZM62.2642 77.596C61.9282 77.596 61.6522 77.32 61.6522 76.984C61.6522 76.648 61.9282 76.36 62.2642 76.36C62.6002 76.36 62.8882 76.648 62.8882 76.984C62.8882 77.32 62.6002 77.596 62.2642 77.596ZM61.8562 85V79.192H62.6842V85H61.8562ZM65.2389 85H64.4109V79.192H65.1309L65.2509 80.2C65.6349 79.456 66.4029 79.036 67.2429 79.036C68.8389 79.036 69.4989 79.984 69.4989 81.448V85H68.6709V81.628C68.6709 80.272 68.0589 79.792 67.0989 79.792C65.9109 79.792 65.2389 80.656 65.2389 81.964V85ZM70.7532 81.928C70.7532 80.344 71.7732 79.036 73.4772 79.036C74.4852 79.036 75.2532 79.504 75.6252 80.356L75.7092 79.192H76.4292V84.82C76.4292 86.548 75.3252 87.676 73.6212 87.676C72.1332 87.676 71.0892 86.836 70.8612 85.432H71.6892C71.8692 86.368 72.5892 86.92 73.6332 86.92C74.8212 86.92 75.6132 86.116 75.6132 84.904V83.524C75.2172 84.34 74.4132 84.82 73.4172 84.82C71.7612 84.82 70.7532 83.512 70.7532 81.928ZM71.5812 81.916C71.5812 83.104 72.3132 84.076 73.5372 84.076C74.7972 84.076 75.5412 83.164 75.5412 81.916C75.5412 80.68 74.8212 79.768 73.5492 79.768C72.3012 79.768 71.5812 80.74 71.5812 81.916ZM81.4851 87.532V79.192H82.2051L82.2891 80.368C82.6971 79.468 83.5131 79.036 84.4851 79.036C86.1651 79.036 87.1731 80.32 87.1731 82.072C87.1731 83.824 86.2011 85.144 84.4851 85.144C83.5011 85.144 82.7211 84.724 82.3131 83.884V87.532H81.4851ZM82.3251 82.096C82.3251 83.428 83.0691 84.4 84.3411 84.4C85.6011 84.4 86.3331 83.428 86.3331 82.096C86.3331 80.752 85.6011 79.792 84.3411 79.792C83.0691 79.792 82.3251 80.752 82.3251 82.096ZM88.9009 77.596C88.5649 77.596 88.2889 77.32 88.2889 76.984C88.2889 76.648 88.5649 76.36 88.9009 76.36C89.2369 76.36 89.5249 76.648 89.5249 76.984C89.5249 77.32 89.2369 77.596 88.9009 77.596ZM88.4929 85V79.192H89.3209V85H88.4929ZM91.0476 87.532V79.192H91.7676L91.8516 80.368C92.2596 79.468 93.0756 79.036 94.0476 79.036C95.7276 79.036 96.7356 80.32 96.7356 82.072C96.7356 83.824 95.7636 85.144 94.0476 85.144C93.0636 85.144 92.2836 84.724 91.8756 83.884V87.532H91.0476ZM91.8876 82.096C91.8876 83.428 92.6316 84.4 93.9036 84.4C95.1636 84.4 95.8956 83.428 95.8956 82.096C95.8956 80.752 95.1636 79.792 93.9036 79.792C92.6316 79.792 91.8876 80.752 91.8876 82.096ZM100.491 85.144C98.7874 85.144 97.6474 83.92 97.6474 82.096C97.6474 80.284 98.7754 79.036 100.431 79.036C102.003 79.036 103.071 80.152 103.071 81.796V82.204H98.4514C98.5114 83.62 99.2554 84.436 100.503 84.436C101.451 84.436 102.063 84.028 102.279 83.26H103.071C102.759 84.484 101.859 85.144 100.491 85.144ZM100.431 79.744C99.3394 79.744 98.6194 80.464 98.4754 81.604H102.243C102.243 80.488 101.523 79.744 100.431 79.744ZM105.259 85H104.431V76.252H105.259V85ZM107.428 77.596C107.092 77.596 106.816 77.32 106.816 76.984C106.816 76.648 107.092 76.36 107.428 76.36C107.764 76.36 108.052 76.648 108.052 76.984C108.052 77.32 107.764 77.596 107.428 77.596ZM107.02 85V79.192H107.848V85H107.02ZM110.403 85H109.575V79.192H110.295L110.415 80.2C110.799 79.456 111.567 79.036 112.407 79.036C114.003 79.036 114.663 79.984 114.663 81.448V85H113.835V81.628C113.835 80.272 113.223 79.792 112.263 79.792C111.075 79.792 110.403 80.656 110.403 81.964V85ZM118.749 85.144C117.045 85.144 115.905 83.92 115.905 82.096C115.905 80.284 117.033 79.036 118.689 79.036C120.261 79.036 121.329 80.152 121.329 81.796V82.204H116.709C116.769 83.62 117.513 84.436 118.761 84.436C119.709 84.436 120.321 84.028 120.537 83.26H121.329C121.017 84.484 120.117 85.144 118.749 85.144ZM118.689 79.744C117.597 79.744 116.877 80.464 116.733 81.604H120.501C120.501 80.488 119.781 79.744 118.689 79.744ZM125.333 79.192H126.221V78.064C126.221 76.756 126.941 76.252 127.829 76.252C128.033 76.252 128.273 76.264 128.465 76.3V77.008H127.973C127.241 77.008 127.049 77.38 127.049 78.064V79.192H128.417V79.888H127.049V85H126.221V79.888H125.333V79.192ZM128.96 82.096C128.96 80.32 130.208 79.036 131.912 79.036C133.616 79.036 134.864 80.32 134.864 82.096C134.864 83.86 133.616 85.144 131.912 85.144C130.208 85.144 128.96 83.86 128.96 82.096ZM129.8 82.084C129.8 83.452 130.664 84.4 131.912 84.4C133.148 84.4 134.024 83.452 134.024 82.084C134.024 80.74 133.148 79.78 131.912 79.78C130.664 79.78 129.8 80.74 129.8 82.084ZM139.224 79.12V79.864H138.768C137.7 79.864 137.016 80.584 137.016 81.688V85H136.188V79.192H136.968L137.028 80.092C137.256 79.468 137.868 79.06 138.684 79.06C138.864 79.06 139.02 79.072 139.224 79.12ZM145.321 85.144C144.085 85.144 143.353 84.448 143.353 83.428C143.353 82.36 144.169 81.688 145.525 81.58L147.445 81.424V81.232C147.445 80.092 146.761 79.732 145.909 79.732C144.901 79.732 144.301 80.188 144.301 80.968H143.545C143.545 79.792 144.505 79.036 145.933 79.036C147.277 79.036 148.261 79.708 148.261 81.244V85H147.565L147.457 83.98C147.097 84.712 146.305 85.144 145.321 85.144ZM145.513 84.472C146.737 84.472 147.445 83.62 147.445 82.36V82.048L145.729 82.18C144.637 82.276 144.193 82.756 144.193 83.404C144.193 84.112 144.721 84.472 145.513 84.472ZM151.149 85H150.333V79.888H149.169V79.192H150.333V77.356H151.149V79.192H152.313V79.888H151.149V85ZM153.061 82.216V81.472H156.541V82.216H153.061ZM161.209 79.12V79.864H160.753C159.685 79.864 159.001 80.584 159.001 81.688V85H158.173V79.192H158.953L159.013 80.092C159.241 79.468 159.853 79.06 160.669 79.06C160.849 79.06 161.005 79.072 161.209 79.12ZM162.717 77.596C162.381 77.596 162.105 77.32 162.105 76.984C162.105 76.648 162.381 76.36 162.717 76.36C163.053 76.36 163.341 76.648 163.341 76.984C163.341 77.32 163.053 77.596 162.717 77.596ZM162.309 85V79.192H163.137V85H162.309ZM164.372 83.368H165.164C165.164 84.04 165.668 84.46 166.484 84.46C167.384 84.46 167.912 84.076 167.912 83.452C167.912 82.972 167.672 82.696 166.988 82.528L165.992 82.276C164.984 82.024 164.492 81.496 164.492 80.704C164.492 79.684 165.344 79.036 166.592 79.036C167.816 79.036 168.608 79.708 168.644 80.788H167.84C167.816 80.116 167.348 79.72 166.568 79.72C165.752 79.72 165.296 80.068 165.296 80.692C165.296 81.136 165.608 81.448 166.244 81.604L167.24 81.856C168.248 82.108 168.704 82.576 168.704 83.416C168.704 84.46 167.816 85.144 166.496 85.144C165.188 85.144 164.372 84.448 164.372 83.368ZM170.931 85H170.103V76.252H170.931V82.192L173.811 79.192H174.855L172.623 81.508L174.867 85H173.907L172.059 82.096L170.931 83.26V85ZM181.464 85.144C179.772 85.144 178.776 83.848 178.776 82.108C178.776 80.356 179.772 79.036 181.5 79.036C182.46 79.036 183.228 79.456 183.636 80.296V76.252H184.464V85H183.744L183.66 83.812C183.252 84.712 182.436 85.144 181.464 85.144ZM181.608 84.388C182.88 84.388 183.624 83.428 183.624 82.084C183.624 80.752 182.88 79.78 181.608 79.78C180.348 79.78 179.616 80.752 179.616 82.084C179.616 83.428 180.348 84.388 181.608 84.388ZM188.628 85.144C186.924 85.144 185.784 83.92 185.784 82.096C185.784 80.284 186.912 79.036 188.568 79.036C190.14 79.036 191.208 80.152 191.208 81.796V82.204H186.588C186.648 83.62 187.392 84.436 188.64 84.436C189.588 84.436 190.2 84.028 190.416 83.26H191.208C190.896 84.484 189.996 85.144 188.628 85.144ZM188.568 79.744C187.476 79.744 186.756 80.464 186.612 81.604H190.38C190.38 80.488 189.66 79.744 188.568 79.744ZM194.141 85.144C192.905 85.144 192.173 84.448 192.173 83.428C192.173 82.36 192.989 81.688 194.345 81.58L196.265 81.424V81.232C196.265 80.092 195.581 79.732 194.729 79.732C193.721 79.732 193.121 80.188 193.121 80.968H192.365C192.365 79.792 193.325 79.036 194.753 79.036C196.097 79.036 197.081 79.708 197.081 81.244V85H196.385L196.277 83.98C195.917 84.712 195.125 85.144 194.141 85.144ZM194.333 84.472C195.557 84.472 196.265 83.62 196.265 82.36V82.048L194.549 82.18C193.457 82.276 193.013 82.756 193.013 83.404C193.013 84.112 193.541 84.472 194.333 84.472ZM199.607 85H198.779V76.252H199.607V85ZM200.876 83.368H201.668C201.668 84.04 202.172 84.46 202.988 84.46C203.888 84.46 204.416 84.076 204.416 83.452C204.416 82.972 204.176 82.696 203.492 82.528L202.496 82.276C201.488 82.024 200.996 81.496 200.996 80.704C200.996 79.684 201.848 79.036 203.096 79.036C204.32 79.036 205.112 79.708 205.148 80.788H204.344C204.32 80.116 203.852 79.72 203.072 79.72C202.256 79.72 201.8 80.068 201.8 80.692C201.8 81.136 202.112 81.448 202.748 81.604L203.744 81.856C204.752 82.108 205.208 82.576 205.208 83.416C205.208 84.46 204.32 85.144 203 85.144C201.692 85.144 200.876 84.448 200.876 83.368ZM207.185 85.132C206.777 85.132 206.429 84.796 206.429 84.4C206.429 83.992 206.777 83.644 207.185 83.644C207.593 83.644 207.941 83.992 207.941 84.4C207.941 84.796 207.593 85.132 207.185 85.132ZM210.326 85.132C209.918 85.132 209.57 84.796 209.57 84.4C209.57 83.992 209.918 83.644 210.326 83.644C210.734 83.644 211.082 83.992 211.082 84.4C211.082 84.796 210.734 85.132 210.326 85.132ZM213.467 85.132C213.059 85.132 212.711 84.796 212.711 84.4C212.711 83.992 213.059 83.644 213.467 83.644C213.875 83.644 214.223 83.992 214.223 84.4C214.223 84.796 213.875 85.132 213.467 85.132Z" fill="#CBD5E1"/>
<path d="M22.96 106.48L16.96 108.628V107.812L22.036 106.06L16.96 104.32V103.492L22.96 105.64V106.48ZM32.674 105.22H29.158V109H28.294V100.408H33.358V101.2H29.158V104.44H32.674V105.22ZM33.7646 106.096C33.7646 104.32 35.0126 103.036 36.7166 103.036C38.4206 103.036 39.6686 104.32 39.6686 106.096C39.6686 107.86 38.4206 109.144 36.7166 109.144C35.0126 109.144 33.7646 107.86 33.7646 106.096ZM34.6046 106.084C34.6046 107.452 35.4686 108.4 36.7166 108.4C37.9526 108.4 38.8286 107.452 38.8286 106.084C38.8286 104.74 37.9526 103.78 36.7166 103.78C35.4686 103.78 34.6046 104.74 34.6046 106.084ZM44.9323 103.192H45.7603V109H45.0403L44.9323 108.016C44.6083 108.688 43.8043 109.144 42.8923 109.144C41.5243 109.144 40.7803 108.208 40.7803 106.792V103.18H41.6203V106.528C41.6203 107.908 42.2323 108.4 43.1563 108.4C44.2723 108.4 44.9323 107.656 44.9323 106.276V103.192ZM48.3131 109H47.4851V103.192H48.2051L48.3251 104.2C48.7091 103.456 49.4771 103.036 50.3171 103.036C51.9131 103.036 52.5731 103.984 52.5731 105.448V109H51.7451V105.628C51.7451 104.272 51.1331 103.792 50.1731 103.792C48.9851 103.792 48.3131 104.656 48.3131 105.964V109ZM56.5034 109.144C54.8114 109.144 53.8154 107.848 53.8154 106.108C53.8154 104.356 54.8114 103.036 56.5394 103.036C57.4994 103.036 58.2674 103.456 58.6754 104.296V100.252H59.5034V109H58.7834L58.6994 107.812C58.2914 108.712 57.4754 109.144 56.5034 109.144ZM56.6474 108.388C57.9194 108.388 58.6634 107.428 58.6634 106.084C58.6634 104.752 57.9194 103.78 56.6474 103.78C55.3874 103.78 54.6554 104.752 54.6554 106.084C54.6554 107.428 55.3874 108.388 56.6474 108.388ZM62.0592 104.536C61.6512 104.536 61.3032 104.188 61.3032 103.792C61.3032 103.384 61.6512 103.048 62.0592 103.048C62.4672 103.048 62.8152 103.384 62.8152 103.792C62.8152 104.188 62.4672 104.536 62.0592 104.536ZM62.0592 109.132C61.6512 109.132 61.3032 108.796 61.3032 108.4C61.3032 107.992 61.6512 107.644 62.0592 107.644C62.4672 107.644 62.8152 107.992 62.8152 108.4C62.8152 108.796 62.4672 109.132 62.0592 109.132Z" fill="#CBD5E1"/>
<rect x="75.3906" y="97" width="120.17" height="14" rx="4" fill="#3B82F6" fill-opacity="0.2"/>
<path d="M80.4346 109H79.5586L82.7146 100.408H83.7826L86.9746 109H86.0746L85.2346 106.72H81.2746L80.4346 109ZM83.1346 101.62L81.5386 105.964H84.9586L83.3506 101.62C83.3146 101.5 83.2546 101.356 83.2426 101.272C83.2306 101.344 83.1826 101.5 83.1346 101.62ZM87.3818 106.108C87.3818 104.284 88.4978 103.036 90.1898 103.036C91.5338 103.036 92.5178 103.816 92.7458 105.016H91.9178C91.7018 104.212 91.0058 103.768 90.2018 103.768C89.0258 103.768 88.1978 104.668 88.1978 106.096C88.1978 107.476 88.9658 108.4 90.1418 108.4C91.0058 108.4 91.7018 107.92 91.9298 107.176H92.7698C92.4938 108.364 91.4618 109.144 90.1418 109.144C88.4978 109.144 87.3818 107.932 87.3818 106.108ZM94.8522 109H94.0242V103.192H94.7442L94.8402 104.02C95.1282 103.408 95.7762 103.036 96.5922 103.036C97.5042 103.036 98.1882 103.516 98.4642 104.272C98.7282 103.516 99.4362 103.036 100.372 103.036C101.632 103.036 102.46 103.852 102.46 105.196V109H101.656V105.364C101.656 104.368 101.104 103.78 100.216 103.78C99.2442 103.78 98.6682 104.512 98.6682 105.412V109H97.8522V105.352C97.8522 104.368 97.2882 103.792 96.4122 103.792C95.4402 103.792 94.8522 104.512 94.8522 105.4V109ZM106.562 109.144C104.858 109.144 103.718 107.92 103.718 106.096C103.718 104.284 104.846 103.036 106.502 103.036C108.074 103.036 109.142 104.152 109.142 105.796V106.204H104.522C104.582 107.62 105.326 108.436 106.574 108.436C107.522 108.436 108.134 108.028 108.35 107.26H109.142C108.83 108.484 107.93 109.144 106.562 109.144ZM106.502 103.744C105.41 103.744 104.69 104.464 104.546 105.604H108.314C108.314 104.488 107.594 103.744 106.502 103.744ZM117.478 109.132C115.078 109.132 113.446 107.344 113.446 104.704C113.446 102.064 115.102 100.264 117.526 100.264C119.374 100.264 120.826 101.38 121.174 103.084H120.25C119.89 101.848 118.834 101.092 117.49 101.092C115.606 101.092 114.346 102.532 114.346 104.704C114.346 106.864 115.606 108.304 117.49 108.304C118.846 108.304 119.926 107.572 120.298 106.42H121.222C120.826 108.04 119.326 109.132 117.478 109.132ZM122.128 106.096C122.128 104.32 123.376 103.036 125.08 103.036C126.784 103.036 128.032 104.32 128.032 106.096C128.032 107.86 126.784 109.144 125.08 109.144C123.376 109.144 122.128 107.86 122.128 106.096ZM122.968 106.084C122.968 107.452 123.832 108.4 125.08 108.4C126.316 108.4 127.192 107.452 127.192 106.084C127.192 104.74 126.316 103.78 125.08 103.78C123.832 103.78 122.968 104.74 122.968 106.084ZM132.392 103.12V103.864H131.936C130.868 103.864 130.184 104.584 130.184 105.688V109H129.356V103.192H130.136L130.196 104.092C130.424 103.468 131.036 103.06 131.852 103.06C132.032 103.06 132.188 103.072 132.392 103.12ZM133.493 111.532V103.192H134.213L134.297 104.368C134.705 103.468 135.521 103.036 136.493 103.036C138.173 103.036 139.181 104.32 139.181 106.072C139.181 107.824 138.209 109.144 136.493 109.144C135.509 109.144 134.729 108.724 134.321 107.884V111.532H133.493ZM134.333 106.096C134.333 107.428 135.077 108.4 136.349 108.4C137.609 108.4 138.341 107.428 138.341 106.096C138.341 104.752 137.609 103.792 136.349 103.792C135.077 103.792 134.333 104.752 134.333 106.096ZM146.013 110.884H145.257C144.249 109.504 143.589 107.464 143.589 105.4C143.589 103.42 144.225 101.356 145.257 99.928H146.013C145.089 101.224 144.441 103.24 144.441 105.4C144.441 107.512 145.065 109.564 146.013 110.884ZM149.06 110.188V109.132C147.548 109.048 146.528 108.184 146.432 106.864H147.32C147.368 107.704 148.028 108.268 149.06 108.352V105.016L148.592 104.896C147.248 104.572 146.54 103.816 146.54 102.64C146.54 101.308 147.536 100.384 149.06 100.264V99.22H149.696V100.264C151.088 100.36 152 101.2 152.12 102.556H151.256C151.172 101.656 150.62 101.128 149.696 101.032V104.332L150.224 104.464C151.58 104.8 152.264 105.556 152.264 106.708C152.264 108.088 151.268 109.012 149.696 109.132V110.188H149.06ZM148.748 104.104L149.06 104.176V101.044C148.04 101.152 147.392 101.752 147.392 102.628C147.392 103.384 147.836 103.876 148.748 104.104ZM150.044 105.256L149.696 105.172V108.352C150.752 108.244 151.412 107.644 151.412 106.756C151.412 105.976 150.968 105.472 150.044 105.256ZM154.945 101.188H153.193V100.408H155.773V109H154.945V101.188ZM162.985 109H157.321V108.316L160.069 105.916C161.653 104.536 162.061 103.936 162.061 102.916C162.061 101.752 161.365 101.044 160.225 101.044C159.037 101.044 158.257 101.908 158.221 103.24H157.357C157.405 101.44 158.545 100.252 160.237 100.252C161.857 100.252 162.937 101.296 162.937 102.868C162.937 104.116 162.373 104.944 160.657 106.444L158.653 108.196H162.985V109ZM164.18 104.704C164.18 102.04 165.488 100.24 167.624 100.24C169.748 100.24 171.056 102.04 171.056 104.704C171.056 107.38 169.772 109.156 167.624 109.156C165.464 109.156 164.18 107.38 164.18 104.704ZM165.032 104.704C165.032 106.936 165.98 108.376 167.624 108.376C169.268 108.376 170.216 106.936 170.216 104.704C170.216 102.46 169.268 101.032 167.624 101.032C165.98 101.032 165.032 102.46 165.032 104.704ZM173.439 109H172.611V100.252H173.439V106.192L176.319 103.192H177.363L175.131 105.508L177.375 109H176.415L174.567 106.096L173.439 107.26V109ZM178.256 110.884H177.5C178.448 109.564 179.084 107.512 179.084 105.4C179.084 103.24 178.424 101.224 177.5 99.928H178.256C179.3 101.356 179.924 103.42 179.924 105.4C179.924 107.464 179.264 109.504 178.256 110.884Z" fill="white"/>
<path d="M199.657 106.216V105.472H203.137V106.216H199.657ZM211.552 105.844H209.14V109H208.276V100.408H211.552C213.208 100.408 214.252 101.488 214.252 103.108C214.252 104.668 213.196 105.844 211.552 105.844ZM211.432 101.188H209.14V105.064H211.384C212.632 105.064 213.352 104.272 213.352 103.096C213.352 101.908 212.62 101.188 211.432 101.188ZM218.504 103.12V103.864H218.048C216.98 103.864 216.296 104.584 216.296 105.688V109H215.468V103.192H216.248L216.308 104.092C216.536 103.468 217.148 103.06 217.964 103.06C218.144 103.06 218.3 103.072 218.504 103.12ZM218.974 106.096C218.974 104.32 220.222 103.036 221.926 103.036C223.63 103.036 224.878 104.32 224.878 106.096C224.878 107.86 223.63 109.144 221.926 109.144C220.222 109.144 218.974 107.86 218.974 106.096ZM219.814 106.084C219.814 107.452 220.678 108.4 221.926 108.4C223.162 108.4 224.038 107.452 224.038 106.084C224.038 104.74 223.162 103.78 221.926 103.78C220.678 103.78 219.814 104.74 219.814 106.084ZM226.922 109H226.202V100.252H227.03V104.32C227.438 103.468 228.23 103.036 229.214 103.036C230.906 103.036 231.89 104.356 231.89 106.108C231.89 107.848 230.882 109.144 229.19 109.144C228.218 109.144 227.414 108.712 227.006 107.812L226.922 109ZM227.042 106.084C227.042 107.428 227.786 108.388 229.058 108.388C230.318 108.388 231.05 107.428 231.05 106.084C231.05 104.752 230.318 103.78 229.058 103.78C227.786 103.78 227.042 104.752 227.042 106.084ZM234.878 109.144C233.642 109.144 232.91 108.448 232.91 107.428C232.91 106.36 233.726 105.688 235.082 105.58L237.002 105.424V105.232C237.002 104.092 236.318 103.732 235.466 103.732C234.458 103.732 233.858 104.188 233.858 104.968H233.102C233.102 103.792 234.062 103.036 235.49 103.036C236.834 103.036 237.818 103.708 237.818 105.244V109H237.122L237.014 107.98C236.654 108.712 235.862 109.144 234.878 109.144ZM235.07 108.472C236.294 108.472 237.002 107.62 237.002 106.36V106.048L235.286 106.18C234.194 106.276 233.75 106.756 233.75 107.404C233.75 108.112 234.278 108.472 235.07 108.472ZM240.199 109H239.479V100.252H240.307V104.32C240.715 103.468 241.507 103.036 242.491 103.036C244.183 103.036 245.167 104.356 245.167 106.108C245.167 107.848 244.159 109.144 242.467 109.144C241.495 109.144 240.691 108.712 240.283 107.812L240.199 109ZM240.319 106.084C240.319 107.428 241.063 108.388 242.335 108.388C243.595 108.388 244.327 107.428 244.327 106.084C244.327 104.752 243.595 103.78 242.335 103.78C241.063 103.78 240.319 104.752 240.319 106.084ZM246.895 101.596C246.559 101.596 246.283 101.32 246.283 100.984C246.283 100.648 246.559 100.36 246.895 100.36C247.231 100.36 247.519 100.648 247.519 100.984C247.519 101.32 247.231 101.596 246.895 101.596ZM246.487 109V103.192H247.315V109H246.487ZM249.906 109H249.078V100.252H249.906V109ZM252.075 101.596C251.739 101.596 251.463 101.32 251.463 100.984C251.463 100.648 251.739 100.36 252.075 100.36C252.411 100.36 252.699 100.648 252.699 100.984C252.699 101.32 252.411 101.596 252.075 101.596ZM251.667 109V103.192H252.495V109H251.667ZM255.553 109H254.737V103.888H253.573V103.192H254.737V101.356H255.553V103.192H256.717V103.888H255.553V109ZM257.208 111.532V110.848H257.844C258.348 110.848 258.852 110.812 259.14 110.032L259.392 109.348L257.04 103.192H257.916L259.788 108.256L261.624 103.192H262.476L259.812 110.332C259.476 111.244 258.912 111.616 258.084 111.616C257.736 111.616 257.472 111.592 257.208 111.532ZM269.052 109.144C267.36 109.144 266.364 107.848 266.364 106.108C266.364 104.356 267.36 103.036 269.088 103.036C270.048 103.036 270.816 103.456 271.224 104.296V100.252H272.052V109H271.332L271.248 107.812C270.84 108.712 270.024 109.144 269.052 109.144ZM269.196 108.388C270.468 108.388 271.212 107.428 271.212 106.084C271.212 104.752 270.468 103.78 269.196 103.78C267.936 103.78 267.204 104.752 267.204 106.084C267.204 107.428 267.936 108.388 269.196 108.388ZM276.816 103.12V103.864H276.36C275.292 103.864 274.608 104.584 274.608 105.688V109H273.78V103.192H274.56L274.62 104.092C274.848 103.468 275.46 103.06 276.276 103.06C276.456 103.06 276.612 103.072 276.816 103.12ZM277.286 106.096C277.286 104.32 278.534 103.036 280.238 103.036C281.942 103.036 283.19 104.32 283.19 106.096C283.19 107.86 281.942 109.144 280.238 109.144C278.534 109.144 277.286 107.86 277.286 106.096ZM278.126 106.084C278.126 107.452 278.99 108.4 280.238 108.4C281.474 108.4 282.35 107.452 282.35 106.084C282.35 104.74 281.474 103.78 280.238 103.78C278.99 103.78 278.126 104.74 278.126 106.084ZM284.514 111.532V103.192H285.234L285.318 104.368C285.726 103.468 286.542 103.036 287.514 103.036C289.194 103.036 290.202 104.32 290.202 106.072C290.202 107.824 289.23 109.144 287.514 109.144C286.53 109.144 285.75 108.724 285.342 107.884V111.532H284.514ZM285.354 106.096C285.354 107.428 286.098 108.4 287.37 108.4C288.63 108.4 289.362 107.428 289.362 106.096C289.362 104.752 288.63 103.792 287.37 103.792C286.098 103.792 285.354 104.752 285.354 106.096ZM291.522 111.532V103.192H292.242L292.326 104.368C292.734 103.468 293.55 103.036 294.522 103.036C296.202 103.036 297.21 104.32 297.21 106.072C297.21 107.824 296.238 109.144 294.522 109.144C293.538 109.144 292.758 108.724 292.35 107.884V111.532H291.522ZM292.362 106.096C292.362 107.428 293.106 108.4 294.378 108.4C295.638 108.4 296.37 107.428 296.37 106.096C296.37 104.752 295.638 103.792 294.378 103.792C293.106 103.792 292.362 104.752 292.362 106.096ZM298.938 101.596C298.602 101.596 298.326 101.32 298.326 100.984C298.326 100.648 298.602 100.36 298.938 100.36C299.274 100.36 299.562 100.648 299.562 100.984C299.562 101.32 299.274 101.596 298.938 101.596ZM298.53 109V103.192H299.358V109H298.53ZM301.913 109H301.085V103.192H301.805L301.925 104.2C302.309 103.456 303.077 103.036 303.917 103.036C305.513 103.036 306.173 103.984 306.173 105.448V109H305.345V105.628C305.345 104.272 304.733 103.792 303.773 103.792C302.585 103.792 301.913 104.656 301.913 105.964V109ZM307.427 105.928C307.427 104.344 308.447 103.036 310.151 103.036C311.159 103.036 311.927 103.504 312.299 104.356L312.383 103.192H313.103V108.82C313.103 110.548 311.999 111.676 310.295 111.676C308.807 111.676 307.763 110.836 307.535 109.432H308.363C308.543 110.368 309.263 110.92 310.307 110.92C311.495 110.92 312.287 110.116 312.287 108.904V107.524C311.891 108.34 311.087 108.82 310.091 108.82C308.435 108.82 307.427 107.512 307.427 105.928ZM308.255 105.916C308.255 107.104 308.987 108.076 310.211 108.076C311.471 108.076 312.215 107.164 312.215 105.916C312.215 104.68 311.495 103.768 310.223 103.768C308.975 103.768 308.255 104.74 308.255 105.916Z" fill="#CBD5E1"/>
<path d="M24.1445 173.605C24.1758 173.645 24.2012 173.686 24.2207 173.729C24.2402 173.771 24.25 173.82 24.25 173.875C24.25 173.93 24.2402 173.979 24.2207 174.021C24.2012 174.064 24.1758 174.105 24.1445 174.145L21.5195 176.77C21.4805 176.801 21.4395 176.826 21.3965 176.846C21.3535 176.865 21.3047 176.875 21.25 176.875C21.1953 176.875 21.1465 176.865 21.1035 176.846C21.0605 176.826 21.0195 176.801 20.9805 176.77L19.8555 175.645C19.8242 175.605 19.7988 175.564 19.7793 175.521C19.7598 175.479 19.75 175.43 19.75 175.375C19.75 175.273 19.7871 175.186 19.8613 175.111C19.9355 175.037 20.0234 175 20.125 175C20.1797 175 20.2285 175.01 20.2715 175.029C20.3145 175.049 20.3555 175.074 20.3945 175.105L21.25 175.973L23.6055 173.605C23.6445 173.574 23.6855 173.549 23.7285 173.529C23.7715 173.51 23.8203 173.5 23.875 173.5C23.9297 173.5 23.9785 173.51 24.0215 173.529C24.0645 173.549 24.1055 173.574 24.1445 173.605ZM26.875 175C26.875 175.672 26.7461 176.305 26.4883 176.898C26.2383 177.492 25.8926 178.01 25.4512 178.451C25.0098 178.893 24.4922 179.238 23.8984 179.488C23.3047 179.746 22.6719 179.875 22 179.875C21.3281 179.875 20.6953 179.746 20.1016 179.488C19.5078 179.238 18.9902 178.893 18.5488 178.451C18.1074 178.01 17.7617 177.492 17.5117 176.898C17.2539 176.305 17.125 175.672 17.125 175C17.125 174.328 17.2539 173.695 17.5117 173.102C17.7617 172.508 18.1074 171.99 18.5488 171.549C18.9902 171.107 19.5078 170.762 20.1016 170.512C20.6953 170.254 21.3281 170.125 22 170.125C22.6719 170.125 23.3047 170.254 23.8984 170.512C24.4922 170.77 25.0078 171.117 25.4453 171.555C25.8828 171.992 26.2305 172.508 26.4883 173.102C26.7461 173.695 26.875 174.328 26.875 175ZM26.125 175C26.125 174.43 26.0156 173.895 25.7969 173.395C25.5859 172.895 25.293 172.457 24.918 172.082C24.543 171.707 24.1055 171.414 23.6055 171.203C23.1055 170.984 22.5703 170.875 22 170.875C21.4297 170.875 20.8945 170.984 20.3945 171.203C19.8945 171.414 19.457 171.707 19.082 172.082C18.707 172.457 18.4141 172.895 18.2031 173.395C17.9844 173.895 17.875 174.43 17.875 175C17.875 175.57 17.9844 176.105 18.2031 176.605C18.4141 177.105 18.707 177.543 19.082 177.918C19.457 178.293 19.8945 178.586 20.3945 178.797C20.8945 179.016 21.4297 179.125 22 179.125C22.5703 179.125 23.1055 179.016 23.6055 178.797C24.1055 178.586 24.543 178.293 24.918 177.918C25.293 177.543 25.5859 177.105 25.7969 176.605C26.0156 176.105 26.125 175.57 26.125 175Z" fill="#4ADE80"/>
<path d="M36.09 171H34.81V163.69H37.6C39.26 163.69 40.23 164.53 40.23 165.97C40.23 166.95 39.77 167.65 38.91 168L40.3 171H38.9L37.66 168.27H36.09V171ZM36.09 164.83V167.14H37.6C38.41 167.14 38.89 166.71 38.89 165.97C38.89 165.24 38.41 164.83 37.6 164.83H36.09ZM46.5492 171H42.0092V163.69H46.5492V164.87H43.2892V166.75H46.2092V167.88H43.2892V169.82H46.5492V171ZM49.067 171H47.737L50.377 163.69H51.687L54.327 171H52.977L52.387 169.31H49.657L49.067 171ZM50.867 165.87L50.037 168.23H52.017L51.177 165.87C51.117 165.68 51.047 165.46 51.027 165.31C50.997 165.45 50.937 165.67 50.867 165.87ZM58.3736 171H55.7436V163.69H58.3036C60.4636 163.69 61.9536 165.18 61.9536 167.36C61.9536 169.51 60.4936 171 58.3736 171ZM58.1836 164.87H57.0236V169.82H58.2536C59.7136 169.82 60.6036 168.88 60.6036 167.36C60.6036 165.81 59.6936 164.87 58.1836 164.87ZM64.9177 168.12L62.4477 163.69H63.8777L65.3177 166.35C65.4277 166.55 65.4977 166.71 65.5777 166.89C65.6677 166.71 65.7077 166.59 65.8377 166.35L67.2677 163.69H68.6577L66.1977 168.12V171H64.9177V168.12ZM77.2592 168.01H74.5392V171H73.2592V163.69H77.7792V164.87H74.5392V166.86H77.2592V168.01ZM86.103 167.34C86.103 169.56 84.643 171.12 82.543 171.12C80.453 171.12 79.013 169.57 79.013 167.34C79.013 165.12 80.463 163.56 82.553 163.56C84.643 163.56 86.103 165.11 86.103 167.34ZM84.753 167.34C84.753 165.78 83.893 164.79 82.553 164.79C81.213 164.79 80.353 165.78 80.353 167.34C80.353 168.9 81.213 169.89 82.553 169.89C83.893 169.89 84.753 168.88 84.753 167.34ZM89.0744 171H87.7944V163.69H90.5844C92.2444 163.69 93.2144 164.53 93.2144 165.97C93.2144 166.95 92.7544 167.65 91.8944 168L93.2844 171H91.8844L90.6444 168.27H89.0744V171ZM89.0744 164.83V167.14H90.5844C91.3944 167.14 91.8744 166.71 91.8744 165.97C91.8744 165.24 91.3944 164.83 90.5844 164.83H89.0744ZM36.09 179.69V187H34.81V179.69H36.09ZM39.4704 187H38.2104V179.69H39.4804L42.9104 184.87V179.69H44.1704V187H42.9104L39.4704 181.82V187ZM49.1785 184.48H47.5685V187H46.2885V179.69H49.1785C50.6485 179.69 51.5985 180.65 51.5985 182.08C51.5985 183.49 50.6385 184.48 49.1785 184.48ZM48.9285 180.83H47.5685V183.34H48.9085C49.7885 183.34 50.2585 182.87 50.2585 182.07C50.2585 181.27 49.7785 180.83 48.9285 180.83ZM53.1252 184.33V179.69H54.4052V184.25C54.4052 185.3 54.9752 185.88 56.0152 185.88C57.0552 185.88 57.6352 185.29 57.6352 184.25V179.69H58.9152V184.33C58.9152 186.04 57.7952 187.12 56.0152 187.12C54.2452 187.12 53.1252 186.05 53.1252 184.33ZM60.3497 180.87V179.69H65.9097V180.87H63.7697V187H62.4897V180.87H60.3497Z" fill="#4ADE80"/>
</g>
<defs>
<clipPath id="clip0_407_28">
<rect width="442.66" height="200" fill="white"/>
</clipPath>
</defs>
</svg>
