<svg width="951" height="284" viewBox="0 0 951 284" fill="none" xmlns="http://www.w3.org/2000/svg">
<path d="M0 239.94H12.63C13.85 239.94 15.05 240.08 16.25 240.37C17.44 240.66 18.5 241.13 19.43 241.79C20.36 242.45 21.11 243.29 21.69 244.33C22.27 245.37 22.56 246.62 22.56 248.08C22.56 249.91 22.04 251.42 21 252.61C19.96 253.8 18.6 254.65 16.93 255.17V255.26C18.97 255.53 20.65 256.33 21.96 257.64C23.27 258.95 23.93 260.7 23.93 262.9C23.93 264.67 23.58 266.16 22.88 267.36C22.18 268.57 21.26 269.53 20.11 270.27C18.97 271 17.65 271.53 16.18 271.85C14.71 272.17 13.2 272.33 11.67 272.33H0V239.93V239.94ZM5.77002 253.12H10.89C12.81 253.12 14.28 252.74 15.28 251.97C16.28 251.21 16.79 250.12 16.79 248.72C16.79 247.32 16.27 246.22 15.23 245.61C14.19 245 12.58 244.69 10.38 244.69H5.76001V253.11L5.77002 253.12ZM5.77002 267.49H10.94C11.67 267.49 12.46 267.44 13.32 267.33C14.17 267.22 14.96 267 15.68 266.66C16.4 266.33 16.99 265.84 17.46 265.2C17.93 264.56 18.17 263.71 18.17 262.64C18.17 260.93 17.59 259.74 16.43 259.07C15.27 258.4 13.51 258.07 11.17 258.07H5.77002V267.49Z" fill="black"/>
<path d="M26.04 250.37H32.12L38.25 266.34H38.34L43.79 250.37H49.51L39.12 277.05C38.72 278.06 38.3 278.95 37.84 279.73C37.38 280.51 36.83 281.16 36.19 281.7C35.55 282.23 34.79 282.64 33.92 282.91C33.05 283.19 32.01 283.32 30.79 283.32C30.33 283.32 29.87 283.3 29.4 283.25C28.93 283.21 28.44 283.12 27.96 283L28.42 278.24C28.79 278.36 29.14 278.45 29.5 278.49C29.86 278.53 30.18 278.56 30.48 278.56C31.06 278.56 31.55 278.49 31.94 278.35C32.33 278.21 32.67 278 32.95 277.71C33.22 277.42 33.47 277.06 33.68 276.63C33.89 276.2 34.12 275.7 34.37 275.12L35.47 272.33L26.04 250.36V250.37Z" fill="black"/>
<path d="M137.71 0H0V63.65H167.71L137.71 0Z" fill="#5000FE"/>
<path d="M28.1504 15.8901H40.5704C41.7704 15.8901 42.9504 16.0301 44.1304 16.3201C45.3004 16.6101 46.3404 17.0701 47.2604 17.7101C48.1704 18.3601 48.9204 19.1901 49.4904 20.2101C50.0604 21.2301 50.3504 22.4601 50.3504 23.9001C50.3504 25.7001 49.8404 27.1901 48.8204 28.3601C47.8004 29.5301 46.4604 30.3701 44.8204 30.8801V30.9701C46.8304 31.2401 48.4804 32.0201 49.7704 33.3101C51.0604 34.6001 51.7104 36.3201 51.7104 38.4901C51.7104 40.2301 51.3604 41.6901 50.6704 42.8801C49.9804 44.0701 49.0704 45.0201 47.9504 45.7401C46.8304 46.4601 45.5304 46.9801 44.0804 47.2901C42.6204 47.6001 41.1504 47.7601 39.6504 47.7601H28.1704V15.9001L28.1504 15.8901ZM33.8204 28.8601H38.8604C40.7504 28.8601 42.1904 28.4901 43.1804 27.7401C44.1704 26.9901 44.6604 25.9301 44.6604 24.5401C44.6604 23.1501 44.1504 22.0801 43.1304 21.4801C42.1104 20.8801 40.5204 20.5801 38.3604 20.5801H33.8104V28.8601H33.8204ZM33.8204 42.9901H38.9004C39.6204 42.9901 40.4004 42.9401 41.2404 42.8301C42.0804 42.7301 42.8504 42.5101 43.5604 42.1801C44.2604 41.8501 44.8504 41.3701 45.3104 40.7401C45.7704 40.1101 46.0104 39.2701 46.0104 38.2201C46.0104 36.5401 45.4404 35.3701 44.3004 34.7101C43.1604 34.0501 41.4304 33.7201 39.1204 33.7201H33.8104V42.9901H33.8204Z" fill="white"/>
<path d="M58.3809 15.8901H79.4908V20.8401H64.0509V28.9401H78.6709V33.7101H64.0509V42.7101H80.3009V47.7501H58.3809V15.8901Z" fill="white"/>
<path d="M93.3909 20.8401H83.6309V15.8901H108.831V20.8401H99.0709V47.7501H93.4009V20.8401H93.3909Z" fill="white"/>
<path d="M120.93 15.8901H125.83L139.56 47.7501H133.08L130.11 40.4601H116.3L113.42 47.7501H107.07L120.93 15.8901ZM128.13 35.6101L123.23 22.6501L118.23 35.6101H128.13Z" fill="white"/>
<path d="M0 94.48H32.72C36.85 94.48 41.04 94.92 45.28 95.8C49.52 96.68 53.32 98.18 56.68 100.3C60.04 102.42 62.78 105.29 64.9 108.9C67.02 112.52 68.08 117.07 68.08 122.55C68.08 128.34 66.31 133.38 62.78 137.67C59.24 141.96 54.52 144.78 48.6 146.12V146.43C55.72 147.26 61.62 150.02 66.31 154.72C71 159.42 73.35 165.81 73.35 173.87C73.35 178.42 72.39 182.58 70.49 186.35C68.58 190.12 65.88 193.33 62.37 195.96C58.86 198.6 54.58 200.64 49.52 202.09C44.47 203.54 38.79 204.26 32.5 204.26H0.0100098V94.48H0ZM11.17 142.55H33.65C36.34 142.55 39.05 142.24 41.79 141.62C44.53 141 47.04 139.94 49.31 138.44C51.59 136.94 53.42 134.95 54.82 132.47C56.21 129.99 56.91 126.94 56.91 123.32C56.91 119.7 56.21 116.84 54.82 114.41C53.43 111.98 51.54 109.99 49.16 108.44C46.78 106.89 43.99 105.78 40.79 105.11C37.58 104.44 34.17 104.1 30.56 104.1H11.18V142.55H11.17ZM11.17 194.64H31.95C35.98 194.64 39.83 194.25 43.5 193.48C47.17 192.71 50.37 191.46 53.11 189.76C55.85 188.05 58.05 185.83 59.7 183.09C61.35 180.35 62.18 177.07 62.18 173.25C62.18 166.02 59.72 160.61 54.82 157.05C49.91 153.48 42.96 151.7 33.96 151.7H11.17V194.65V194.64Z" fill="black"/>
<path d="M110.86 103.79C110.86 105.96 110.08 107.74 108.54 109.14C106.99 110.53 105.28 111.23 103.42 111.23C101.56 111.23 99.8497 110.53 98.2997 109.14C96.7497 107.74 95.9697 105.96 95.9697 103.79C95.9697 101.62 96.7497 99.8296 98.2997 98.4396C99.8497 97.0396 101.56 96.3496 103.42 96.3496C105.28 96.3496 106.98 97.0496 108.54 98.4396C110.09 99.8296 110.86 101.62 110.86 103.79ZM108.69 204.26H98.1497V131.7H108.69V204.26Z" fill="black"/>
<path d="M196.45 192.01C193.35 196.66 189.32 200.18 184.36 202.55C179.4 204.92 174.28 206.12 169.01 206.12C163.33 206.12 158.18 205.13 153.59 203.17C148.99 201.21 145.06 198.52 141.81 195.11C138.55 191.7 136.02 187.67 134.21 183.01C132.4 178.36 131.49 173.35 131.49 167.97C131.49 162.59 132.39 157.58 134.21 152.93C136.02 148.28 138.55 144.25 141.81 140.84C145.07 137.43 148.99 134.74 153.59 132.78C158.19 130.82 163.33 129.83 169.01 129.83C174.28 129.83 179.4 131.05 184.36 133.47C189.32 135.9 193.35 139.49 196.45 144.24H196.76V87.0298H207.3V204.25H196.76V192H196.45V192.01ZM142.65 167.97C142.65 172 143.27 175.8 144.51 179.37C145.75 182.94 147.53 186.04 149.86 188.67C152.18 191.3 155.05 193.37 158.46 194.87C161.87 196.37 165.75 197.12 170.09 197.12C174.12 197.12 177.84 196.37 181.26 194.87C184.67 193.37 187.62 191.33 190.1 188.74C192.58 186.16 194.52 183.08 195.91 179.51C197.31 175.95 198 172.1 198 167.96C198 163.82 197.31 159.98 195.91 156.41C194.51 152.85 192.58 149.74 190.1 147.11C187.62 144.47 184.67 142.41 181.26 140.91C177.85 139.41 174.13 138.66 170.09 138.66C165.75 138.66 161.88 139.44 158.46 140.98C155.05 142.53 152.18 144.62 149.86 147.26C147.53 149.9 145.75 153 144.51 156.56C143.27 160.13 142.65 163.93 142.65 167.96V167.97Z" fill="black"/>
<path d="M236.14 94.48H268.86C273 94.48 277.18 94.92 281.42 95.8C285.66 96.68 289.46 98.18 292.82 100.3C296.18 102.42 298.92 105.29 301.04 108.9C303.16 112.52 304.22 117.07 304.22 122.55C304.22 128.34 302.45 133.38 298.92 137.67C295.39 141.96 290.66 144.78 284.74 146.12V146.43C291.86 147.26 297.76 150.02 302.46 154.72C307.15 159.42 309.5 165.81 309.5 173.87C309.5 178.42 308.54 182.58 306.64 186.35C304.73 190.12 302.03 193.33 298.52 195.96C295.01 198.6 290.73 200.64 285.68 202.09C280.63 203.54 274.95 204.26 268.66 204.26H236.17V94.48H236.14ZM247.3 142.55H269.78C272.46 142.55 275.18 142.24 277.92 141.62C280.66 141 283.16 139.94 285.44 138.44C287.72 136.94 289.55 134.95 290.95 132.47C292.34 129.99 293.04 126.94 293.04 123.32C293.04 119.7 292.34 116.84 290.95 114.41C289.55 111.98 287.67 109.99 285.29 108.44C282.91 106.89 280.12 105.78 276.92 105.11C273.72 104.44 270.3 104.1 266.69 104.1H247.31V142.55H247.3ZM247.3 194.64H268.08C272.11 194.64 275.96 194.25 279.63 193.48C283.3 192.71 286.5 191.46 289.24 189.76C291.98 188.05 294.18 185.83 295.83 183.09C297.48 180.35 298.31 177.07 298.31 173.25C298.31 166.02 295.85 160.61 290.95 157.05C286.04 153.48 279.09 151.7 270.09 151.7H247.3V194.65V194.64Z" fill="black"/>
<path d="M333.98 140.07C333.87 136.97 333.72 134.18 333.51 131.7H343.59C343.8 133.66 343.95 135.84 344.05 138.21C344.16 140.59 344.21 142.55 344.21 144.1H344.52C346.59 139.86 349.69 136.43 353.82 133.79C357.95 131.16 362.6 129.84 367.77 129.84C369.11 129.84 370.33 129.89 371.41 129.99C372.5 130.1 373.61 130.3 374.75 130.61L373.35 140.69C372.73 140.48 371.7 140.28 370.25 140.07C368.8 139.87 367.36 139.76 365.91 139.76C363.12 139.76 360.43 140.28 357.85 141.31C355.26 142.34 353.01 143.96 351.1 146.18C349.19 148.4 347.64 151.23 346.45 154.69C345.26 158.15 344.67 162.3 344.67 167.14V204.26H334.13V147.67C334.13 145.71 334.08 143.17 333.98 140.07Z" fill="black"/>
<path d="M524.37 131.69C524.57 133.65 524.73 135.83 524.83 138.2C524.94 140.58 524.99 142.54 524.99 144.09H525.3C527.37 139.85 530.73 136.42 535.38 133.78C540.03 131.15 544.94 129.83 550.1 129.83C559.3 129.83 566.2 132.57 570.8 138.05C575.4 143.53 577.7 150.76 577.7 159.76V204.26H567.16V164.1C567.16 160.28 566.85 156.81 566.23 153.71C565.61 150.61 564.54 147.95 563.05 145.72C561.55 143.5 559.53 141.77 557 140.53C554.47 139.29 551.29 138.67 547.47 138.67C544.68 138.67 541.96 139.24 539.33 140.38C536.69 141.52 534.34 143.25 532.28 145.57C530.21 147.9 528.56 150.84 527.32 154.41C526.08 157.98 525.46 162.19 525.46 167.05V204.26H514.91V147.67C514.91 145.71 514.86 143.17 514.76 140.07C514.65 136.97 514.5 134.18 514.29 131.7H524.37V131.69Z" fill="black"/>
<path d="M439.81 132.47C437.07 130.72 433.97 129.45 430.51 128.67C427.04 127.89 423.56 127.51 420.04 127.51C414.35 127.51 408.8 128.36 403.37 130.07C397.94 131.78 393.11 134.13 388.87 137.13L395.85 149.38C398.85 147.21 402.28 145.43 406.16 144.03C410.04 142.63 413.78 141.94 417.4 141.94C421.95 141.94 425.39 142.71 427.71 144.27C430.04 145.82 431.2 148.41 431.2 152.02C431.2 152.64 431.17 153.29 431.12 153.96C431.07 154.63 430.94 155.59 430.73 156.83C424.63 156.83 418.4 157.19 412.05 157.92C405.69 158.65 399.93 160.07 394.76 162.18C389.59 164.3 385.38 167.25 382.12 171.02C378.86 174.79 377.23 179.73 377.23 185.83C377.23 189.66 377.95 192.83 379.4 195.37C380.85 197.9 382.71 199.92 384.98 201.42C387.25 202.92 389.79 203.98 392.58 204.6C395.37 205.22 398.06 205.53 400.64 205.53C410.98 205.53 419.04 202.07 424.83 195.14H425.14C424.52 198.24 424.21 201.19 424.21 203.98H440.95C440.95 201.91 441.13 199.33 441.49 196.23C441.85 193.13 442.29 190.13 442.81 187.24L448.24 157C448.45 155.97 448.6 154.78 448.71 153.43C448.81 152.09 448.86 150.95 448.86 150.02C448.86 145.78 448.03 142.24 446.38 139.4C444.72 136.56 442.53 134.26 439.79 132.5L439.81 132.47ZM428.11 174.49C427.59 176.97 426.74 179.27 425.55 181.39C424.36 183.51 422.86 185.37 421.05 186.97C419.24 188.57 417.12 189.84 414.69 190.77C412.26 191.7 409.65 192.16 406.86 192.16C405.31 192.16 403.81 192.01 402.36 191.69C400.91 191.38 399.62 190.86 398.49 190.14C397.35 189.42 396.45 188.46 395.78 187.27C395.11 186.08 394.77 184.61 394.77 182.85C394.77 179.96 395.78 177.66 397.79 175.95C399.81 174.24 402.39 172.92 405.54 172C408.69 171.07 412.15 170.47 415.93 170.22C419.7 169.96 423.35 169.83 426.86 169.83H429.03L428.1 174.48L428.11 174.49Z" fill="#5000FE"/>
<mask id="mask0_418_2708" style="mask-type:luminance" maskUnits="userSpaceOnUse" x="377" y="127" width="72" height="79">
<path d="M439.81 132.47C437.07 130.72 433.97 129.45 430.51 128.67C427.04 127.89 423.56 127.51 420.04 127.51C414.35 127.51 408.8 128.36 403.37 130.07C397.94 131.78 393.11 134.13 388.87 137.13L395.85 149.38C398.85 147.21 402.28 145.43 406.16 144.03C410.04 142.63 413.78 141.94 417.4 141.94C421.95 141.94 425.39 142.71 427.71 144.27C430.04 145.82 431.2 148.41 431.2 152.02C431.2 152.64 431.17 153.29 431.12 153.96C431.07 154.63 430.94 155.59 430.73 156.83C424.63 156.83 418.4 157.19 412.05 157.92C405.69 158.65 399.93 160.07 394.76 162.18C389.59 164.3 385.38 167.25 382.12 171.02C378.86 174.79 377.23 179.73 377.23 185.83C377.23 189.66 377.95 192.83 379.4 195.37C380.85 197.9 382.71 199.92 384.98 201.42C387.25 202.92 389.79 203.98 392.58 204.6C395.37 205.22 398.06 205.53 400.64 205.53C410.98 205.53 419.04 202.07 424.83 195.14H425.14C424.52 198.24 424.21 201.19 424.21 203.98H440.95C440.95 201.91 441.13 199.33 441.49 196.23C441.85 193.13 442.29 190.13 442.81 187.24L448.24 157C448.45 155.97 448.6 154.78 448.71 153.43C448.81 152.09 448.86 150.95 448.86 150.02C448.86 145.78 448.03 142.24 446.38 139.4C444.72 136.56 442.53 134.26 439.79 132.5L439.81 132.47ZM428.11 174.49C427.59 176.97 426.74 179.27 425.55 181.39C424.36 183.51 422.86 185.37 421.05 186.97C419.24 188.57 417.12 189.84 414.69 190.77C412.26 191.7 409.65 192.16 406.86 192.16C405.31 192.16 403.81 192.01 402.36 191.69C400.91 191.38 399.62 190.86 398.49 190.14C397.35 189.42 396.45 188.46 395.78 187.27C395.11 186.08 394.77 184.61 394.77 182.85C394.77 179.96 395.78 177.66 397.79 175.95C399.81 174.24 402.39 172.92 405.54 172C408.69 171.07 412.15 170.47 415.93 170.22C419.7 169.96 423.35 169.83 426.86 169.83H429.03L428.1 174.48L428.11 174.49Z" fill="white"/>
</mask>
<g mask="url(#mask0_418_2708)">
<path d="M499.581 93.2397H377.211V205.81H499.581V93.2397Z" fill="#5000FE"/>
</g>
<path d="M462.221 203.95H480.361L493.541 129.52H475.241L462.221 203.95Z" fill="#9664FA"/>
<mask id="mask1_418_2708" style="mask-type:luminance" maskUnits="userSpaceOnUse" x="462" y="129" width="32" height="75">
<path d="M462.221 203.95H480.361L493.541 129.52H475.241L462.221 203.95Z" fill="white"/>
</mask>
<g mask="url(#mask1_418_2708)">
<path d="M499.581 93.2397H377.211V205.81H499.581V93.2397Z" fill="#9664FA"/>
</g>
<path d="M496.561 96.1098C494.541 94.1998 492.041 93.2397 489.041 93.2397C486.041 93.2397 483.401 94.2998 481.131 96.4198C478.861 98.5398 477.721 101.25 477.721 104.56C477.721 107.87 478.781 110.61 480.901 112.47C483.021 114.33 485.581 115.26 488.581 115.26C491.581 115.26 494.291 114.12 496.411 111.85C498.531 109.58 499.591 106.94 499.591 103.94C499.591 100.63 498.581 98.0198 496.571 96.1098H496.561Z" fill="#9664FA"/>
<mask id="mask2_418_2708" style="mask-type:luminance" maskUnits="userSpaceOnUse" x="477" y="93" width="23" height="23">
<path d="M496.561 96.1098C494.541 94.1998 492.041 93.2397 489.041 93.2397C486.041 93.2397 483.401 94.2998 481.131 96.4198C478.861 98.5398 477.721 101.25 477.721 104.56C477.721 107.87 478.781 110.61 480.901 112.47C483.021 114.33 485.581 115.26 488.581 115.26C491.581 115.26 494.291 114.12 496.411 111.85C498.531 109.58 499.591 106.94 499.591 103.94C499.591 100.63 498.581 98.0198 496.571 96.1098H496.561Z" fill="white"/>
</mask>
<g mask="url(#mask2_418_2708)">
<path d="M499.581 93.2397H377.211V205.81H499.581V93.2397Z" fill="#9664FA"/>
</g>
<path d="M622.606 201.28L641.719 86.1525H680.619C689.614 86.1525 696.716 87.764 701.925 90.9869C707.171 94.2099 710.713 98.5759 712.549 104.085C714.423 109.594 714.798 115.759 713.674 122.579C712.549 129.325 710.132 135.471 706.422 141.018C702.749 146.564 697.765 150.987 691.469 154.284C685.21 157.582 677.621 159.231 668.702 159.231H640.82L642.843 146.864H670.276C676.422 146.864 681.556 145.796 685.679 143.66C689.801 141.524 693.024 138.619 695.348 134.947C697.671 131.274 699.208 127.152 699.957 122.579C700.707 117.932 700.519 113.81 699.395 110.212C698.308 106.577 696.041 103.729 692.593 101.668C689.183 99.569 684.367 98.5197 678.146 98.5197H653.636L636.547 201.28H622.606ZM755.848 203.079C747.904 203.079 741.251 201.186 735.892 197.401C730.533 193.616 726.748 188.313 724.537 181.492C722.363 174.672 722.007 166.727 723.469 157.657C724.893 148.813 727.722 141.112 731.957 134.553C736.23 127.957 741.533 122.861 747.866 119.263C754.237 115.628 761.245 113.81 768.89 113.81C776.835 113.81 783.469 115.721 788.79 119.544C794.149 123.329 797.934 128.651 800.146 135.509C802.357 142.33 802.731 150.312 801.27 159.456C799.846 168.226 796.979 175.89 792.669 182.448C788.397 188.969 783.094 194.047 776.76 197.682C770.464 201.28 763.494 203.079 755.848 203.079ZM756.073 191.161C762.145 191.161 767.41 189.606 771.87 186.495C776.367 183.385 780.002 179.281 782.775 174.184C785.586 169.088 787.479 163.579 788.453 157.657C789.352 152.036 789.315 146.808 788.34 141.973C787.366 137.102 785.286 133.185 782.101 130.225C778.915 127.227 774.437 125.728 768.665 125.728C762.594 125.728 757.291 127.302 752.757 130.45C748.26 133.598 744.624 137.739 741.851 142.873C739.078 148.007 737.223 153.535 736.286 159.456C735.386 165.078 735.405 170.306 736.342 175.14C737.316 179.937 739.396 183.816 742.582 186.776C745.805 189.7 750.302 191.161 756.073 191.161ZM887.067 134.272L874.475 137.645C874.025 135.621 873.238 133.672 872.114 131.799C871.027 129.887 869.341 128.332 867.055 127.133C864.806 125.896 861.733 125.278 857.836 125.278C852.551 125.278 847.961 126.496 844.063 128.932C840.166 131.33 837.936 134.385 837.374 138.095C836.811 141.355 837.561 143.96 839.622 145.909C841.683 147.857 845.131 149.45 849.966 150.687L862.333 153.835C869.753 155.746 875.037 158.613 878.185 162.436C881.371 166.221 882.458 171.149 881.446 177.22C880.621 182.167 878.466 186.589 874.981 190.487C871.496 194.384 867.036 197.457 861.602 199.706C856.168 201.954 850.115 203.079 843.445 203.079C834.563 203.079 827.555 201.167 822.42 197.345C817.286 193.485 814.55 187.901 814.213 180.593L827.48 177.445C827.817 182.054 829.466 185.54 832.427 187.901C835.425 190.224 839.622 191.386 845.019 191.386C851.202 191.386 856.355 190.074 860.478 187.451C864.6 184.79 866.942 181.605 867.505 177.895C868.067 174.859 867.467 172.329 865.706 170.306C863.982 168.282 860.984 166.764 856.711 165.752L842.995 162.379C835.35 160.468 829.991 157.545 826.918 153.61C823.882 149.675 822.87 144.728 823.882 138.769C824.707 133.897 826.805 129.588 830.178 125.84C833.588 122.092 837.861 119.15 842.995 117.014C848.167 114.878 853.788 113.81 859.859 113.81C868.404 113.81 874.794 115.684 879.028 119.431C883.263 123.142 885.943 128.089 887.067 134.272ZM949.311 114.934L947.512 126.177H902.765L904.564 114.934H949.311ZM920.979 94.2474H934.245L920.529 176.545C919.929 180.293 920.023 183.104 920.81 184.978C921.634 186.814 922.871 188.051 924.52 188.688C926.206 189.287 928.024 189.587 929.973 189.587C931.434 189.587 932.634 189.512 933.571 189.362C934.507 189.175 935.257 189.025 935.819 188.913L936.719 200.83C935.707 201.167 934.339 201.505 932.615 201.842C930.928 202.217 928.849 202.404 926.375 202.404C922.627 202.404 919.105 201.598 915.807 199.987C912.509 198.375 909.979 195.921 908.218 192.623C906.456 189.325 905.988 185.165 906.812 180.143L920.979 94.2474Z" fill="#231F20"/>
<path d="M102.01 246.85C102.01 242.681 98.6299 239.3 94.4601 239.3C90.2904 239.3 86.9102 242.681 86.9102 246.85C86.9102 251.02 90.2904 254.4 94.4601 254.4C98.6299 254.4 102.01 251.02 102.01 246.85Z" fill="#5000FE"/>
<path d="M84.0697 239.3H68.9697V254.4H84.0697V239.3Z" fill="#5000FE"/>
<path d="M84.0697 264.78C84.0697 260.611 80.6895 257.23 76.5197 257.23C72.35 257.23 68.9697 260.611 68.9697 264.78C68.9697 268.95 72.35 272.33 76.5197 272.33C80.6895 272.33 84.0697 268.95 84.0697 264.78Z" fill="#9664FA"/>
<path d="M102.01 257.23H86.9102V272.33H102.01V257.23Z" fill="#9664FA"/>
<path d="M131.18 246.33H121.46V239.85H147.93V246.33H138.21V271.79H131.18V246.33Z" fill="#5000FE"/>
<path d="M174.67 246.1V239.85H150.58V252.58H157.56V246.1H174.67Z" fill="#5000FE"/>
<path d="M157.56 265.54V258.83H172.62V252.58H157.56V258.74H150.58V271.79H174.9V265.54H157.56Z" fill="#5000FE"/>
<path d="M177 255.91V255.82C177 246.74 183.85 239.3 193.66 239.3C199.68 239.3 203.29 241.31 206.25 244.23L201.78 249.39C199.32 247.15 196.81 245.79 193.61 245.79C188.23 245.79 184.35 250.26 184.35 255.74V255.83C184.35 261.31 188.14 265.87 193.61 265.87C197.26 265.87 199.5 264.41 202.01 262.13L206.48 266.65C203.19 270.16 199.54 272.35 193.38 272.35C183.98 272.35 177 265.09 177 255.92V255.91Z" fill="#5000FE"/>
<path d="M209.35 239.85H216.38V252.49H229.34V239.85H236.37V271.79H229.34V258.97H216.38V271.79H209.35V239.85Z" fill="#5000FE"/>
<path d="M240.43 267.17L244.59 262.19C247.47 264.57 250.48 266.07 254.14 266.07C257.02 266.07 258.76 264.93 258.76 263.05V262.96C258.76 261.18 257.66 260.26 252.32 258.89C245.88 257.24 241.72 255.46 241.72 249.11V249.02C241.72 243.22 246.38 239.38 252.91 239.38C257.57 239.38 261.55 240.84 264.79 243.45L261.13 248.75C258.3 246.78 255.51 245.6 252.81 245.6C250.11 245.6 248.7 246.83 248.7 248.39V248.48C248.7 250.58 250.07 251.27 255.6 252.68C262.09 254.37 265.74 256.7 265.74 262.28V262.37C265.74 268.72 260.9 272.29 254 272.29C249.16 272.29 244.27 270.6 240.43 267.17Z" fill="#9664FA"/>
<path d="M293.26 246.111V239.851H269.13V252.601H276.12V246.111H293.26Z" fill="#9664FA"/>
<path d="M276.12 265.571V258.861H291.2V252.601H276.12V258.771H269.13V271.831H293.48V265.571H276.12Z" fill="#9664FA"/>
<path d="M297 239.85H311.62C315.69 239.85 318.84 240.99 320.94 243.09C322.72 244.87 323.68 247.39 323.68 250.4V250.49C323.68 255.65 320.89 258.9 316.83 260.41L324.64 271.83H316.42L309.57 261.59H304.04V271.83H297V239.84V239.85ZM311.17 255.38C314.6 255.38 316.56 253.55 316.56 250.86V250.77C316.56 247.75 314.46 246.2 311.03 246.2H304.04V255.38H311.17Z" fill="#9664FA"/>
<path d="M323.649 239.851H331.419L339.779 262.381L348.139 239.851H355.719L342.789 272.061H336.579L323.649 239.851Z" fill="#9664FA"/>
<path d="M351.21 264.521H358.61V271.831H351.21V264.521Z" fill="#9664FA"/>
<path d="M363.819 264.89V264.8C363.819 259.59 367.929 257.03 373.829 257.03C376.529 257.03 378.449 257.44 380.319 258.04V257.45C380.319 254.02 378.219 252.19 374.329 252.19C371.629 252.19 369.619 252.78 367.429 253.7L365.919 249.36C368.619 248.17 371.219 247.4 375.059 247.4C378.669 247.4 381.369 248.36 383.059 250.1C384.839 251.84 385.659 254.4 385.659 257.55V271.85H380.269V268.83C378.619 270.8 376.109 272.35 372.409 272.35C367.889 272.35 363.819 269.74 363.819 264.9V264.89ZM380.399 263.15V261.5C378.979 260.95 377.109 260.54 374.919 260.54C371.359 260.54 369.249 262.05 369.249 264.56V264.65C369.249 266.98 371.309 268.31 373.959 268.31C377.619 268.31 380.399 266.21 380.399 263.15Z" fill="#9664FA"/>
<path d="M389.819 247.71H395.399V271.84H389.819V247.71Z" fill="#9664FA"/>
<path opacity="0.6" d="M395.39 239.3H389.55V244.47H395.39V239.3Z" fill="#5400FE"/>
</svg>
