<svg width="786" height="284" viewBox="0 0 786 284" fill="none" xmlns="http://www.w3.org/2000/svg">
<path d="M0 239.94H12.63C13.85 239.94 15.05 240.08 16.25 240.37C17.44 240.66 18.5 241.13 19.43 241.79C20.36 242.45 21.11 243.29 21.69 244.33C22.27 245.37 22.56 246.62 22.56 248.08C22.56 249.91 22.04 251.42 21 252.61C19.96 253.8 18.6 254.65 16.93 255.17V255.26C18.97 255.53 20.65 256.33 21.96 257.64C23.27 258.95 23.93 260.7 23.93 262.9C23.93 264.67 23.58 266.16 22.88 267.36C22.18 268.57 21.26 269.53 20.11 270.27C18.97 271 17.65 271.53 16.18 271.85C14.71 272.17 13.2 272.33 11.67 272.33H0V239.93V239.94ZM5.77002 253.12H10.89C12.81 253.12 14.28 252.74 15.28 251.97C16.28 251.21 16.79 250.12 16.79 248.72C16.79 247.32 16.27 246.22 15.23 245.61C14.19 245 12.58 244.69 10.38 244.69H5.76001V253.11L5.77002 253.12ZM5.77002 267.49H10.94C11.67 267.49 12.46 267.44 13.32 267.33C14.17 267.22 14.96 267 15.68 266.66C16.4 266.33 16.99 265.84 17.46 265.2C17.93 264.56 18.17 263.71 18.17 262.64C18.17 260.93 17.59 259.74 16.43 259.07C15.27 258.4 13.51 258.07 11.17 258.07H5.77002V267.49Z" fill="black"/>
<path d="M26.04 250.37H32.12L38.25 266.34H38.34L43.79 250.37H49.51L39.12 277.05C38.72 278.06 38.3 278.95 37.84 279.73C37.38 280.51 36.83 281.16 36.19 281.7C35.55 282.23 34.79 282.64 33.92 282.91C33.05 283.19 32.01 283.32 30.79 283.32C30.33 283.32 29.87 283.3 29.4 283.25C28.93 283.21 28.44 283.12 27.96 283L28.42 278.24C28.79 278.36 29.14 278.45 29.5 278.49C29.86 278.53 30.18 278.56 30.48 278.56C31.06 278.56 31.55 278.49 31.94 278.35C32.33 278.21 32.67 278 32.95 277.71C33.22 277.42 33.47 277.06 33.68 276.63C33.89 276.2 34.12 275.7 34.37 275.12L35.47 272.33L26.04 250.36V250.37Z" fill="black"/>
<path d="M102.01 246.85C102.01 242.68 98.6299 239.3 94.4601 239.3C90.2904 239.3 86.9102 242.68 86.9102 246.85C86.9102 251.02 90.2904 254.4 94.4601 254.4C98.6299 254.4 102.01 251.02 102.01 246.85Z" fill="#5000FE"/>
<path d="M84.0697 239.3H68.9697V254.4H84.0697V239.3Z" fill="#5000FE"/>
<path d="M84.0697 264.78C84.0697 260.61 80.6895 257.23 76.5197 257.23C72.35 257.23 68.9697 260.61 68.9697 264.78C68.9697 268.95 72.35 272.33 76.5197 272.33C80.6895 272.33 84.0697 268.95 84.0697 264.78Z" fill="#9664FA"/>
<path d="M102.01 257.23H86.9102V272.33H102.01V257.23Z" fill="#9664FA"/>
<path d="M131.18 246.33H121.46V239.85H147.93V246.33H138.21V271.79H131.18V246.33Z" fill="#5000FE"/>
<path d="M174.67 246.1V239.85H150.58V252.58H157.56V246.1H174.67Z" fill="#5000FE"/>
<path d="M157.56 265.54V258.83H172.62V252.58H157.56V258.74H150.58V271.79H174.9V265.54H157.56Z" fill="#5000FE"/>
<path d="M177 255.91V255.82C177 246.74 183.85 239.3 193.66 239.3C199.68 239.3 203.29 241.31 206.25 244.23L201.78 249.39C199.32 247.15 196.81 245.79 193.61 245.79C188.23 245.79 184.35 250.26 184.35 255.74V255.83C184.35 261.31 188.14 265.87 193.61 265.87C197.26 265.87 199.5 264.41 202.01 262.13L206.48 266.65C203.19 270.16 199.54 272.35 193.38 272.35C183.98 272.35 177 265.09 177 255.92V255.91Z" fill="#5000FE"/>
<path d="M209.35 239.85H216.38V252.49H229.34V239.85H236.37V271.79H229.34V258.97H216.38V271.79H209.35V239.85Z" fill="#5000FE"/>
<path d="M240.43 267.17L244.59 262.19C247.47 264.57 250.48 266.07 254.14 266.07C257.02 266.07 258.76 264.93 258.76 263.05V262.96C258.76 261.18 257.66 260.26 252.32 258.89C245.88 257.24 241.72 255.46 241.72 249.11V249.02C241.72 243.22 246.38 239.38 252.91 239.38C257.57 239.38 261.55 240.84 264.79 243.45L261.13 248.75C258.3 246.78 255.51 245.6 252.81 245.6C250.11 245.6 248.7 246.83 248.7 248.39V248.48C248.7 250.58 250.07 251.27 255.6 252.68C262.09 254.37 265.74 256.7 265.74 262.28V262.37C265.74 268.72 260.9 272.29 254 272.29C249.16 272.29 244.27 270.6 240.43 267.17Z" fill="#9664FA"/>
<path d="M293.26 246.11V239.85H269.13V252.6H276.12V246.11H293.26Z" fill="#9664FA"/>
<path d="M276.12 265.57V258.86H291.2V252.6H276.12V258.77H269.13V271.83H293.48V265.57H276.12Z" fill="#9664FA"/>
<path d="M297 239.85H311.62C315.69 239.85 318.84 240.99 320.94 243.09C322.72 244.87 323.68 247.39 323.68 250.4V250.49C323.68 255.65 320.89 258.9 316.83 260.41L324.64 271.83H316.42L309.57 261.59H304.04V271.83H297V239.84V239.85ZM311.17 255.38C314.6 255.38 316.56 253.55 316.56 250.86V250.77C316.56 247.75 314.46 246.2 311.03 246.2H304.04V255.38H311.17Z" fill="#9664FA"/>
<path d="M323.649 239.85H331.419L339.779 262.38L348.139 239.85H355.719L342.789 272.06H336.579L323.649 239.85Z" fill="#9664FA"/>
<path d="M351.21 264.52H358.61V271.83H351.21V264.52Z" fill="#9664FA"/>
<path d="M363.819 264.89V264.8C363.819 259.59 367.929 257.03 373.829 257.03C376.529 257.03 378.449 257.44 380.319 258.04V257.45C380.319 254.02 378.219 252.19 374.329 252.19C371.629 252.19 369.619 252.78 367.429 253.7L365.919 249.36C368.619 248.17 371.219 247.4 375.059 247.4C378.669 247.4 381.369 248.36 383.059 250.1C384.839 251.84 385.659 254.4 385.659 257.55V271.85H380.269V268.83C378.619 270.8 376.109 272.35 372.409 272.35C367.889 272.35 363.819 269.74 363.819 264.9V264.89ZM380.399 263.15V261.5C378.979 260.95 377.109 260.54 374.919 260.54C371.359 260.54 369.249 262.05 369.249 264.56V264.65C369.249 266.98 371.309 268.31 373.959 268.31C377.619 268.31 380.399 266.21 380.399 263.15Z" fill="#9664FA"/>
<path d="M389.819 247.71H395.399V271.84H389.819V247.71Z" fill="#9664FA"/>
<path opacity="0.6" d="M395.39 239.3H389.55V244.47H395.39V239.3Z" fill="#5400FE"/>
<path d="M137.11 0H0V63.37H166.97L137.11 0Z" fill="#5000FE"/>
<path d="M28.0195 15.8301H40.3895C41.5795 15.8301 42.7595 15.9701 43.9295 16.2601C45.0895 16.5401 46.1296 17.0101 47.0396 17.6501C47.9496 18.2901 48.6895 19.1201 49.2595 20.1401C49.8295 21.1601 50.1096 22.3801 50.1096 23.8101C50.1096 25.6001 49.5995 27.0801 48.5895 28.2501C47.5695 29.4101 46.2395 30.2501 44.5995 30.7601V30.8501C46.5995 31.1201 48.2395 31.9001 49.5295 33.1801C50.8095 34.4601 51.4595 36.1801 51.4595 38.3301C51.4595 40.0601 51.1195 41.5201 50.4295 42.7001C49.7395 43.8801 48.8395 44.8301 47.7195 45.5501C46.5995 46.2701 45.3195 46.7801 43.8695 47.0901C42.4195 47.4001 40.9495 47.5601 39.4595 47.5601H28.0295V15.8401L28.0195 15.8301ZM33.6696 28.7301H38.6895C40.5695 28.7301 42.0095 28.3601 42.9895 27.6101C43.9695 26.8601 44.4695 25.8001 44.4695 24.4301C44.4695 23.0601 43.9595 21.9801 42.9495 21.3801C41.9295 20.7801 40.3495 20.4801 38.1995 20.4801H33.6696V28.7201V28.7301ZM33.6696 42.8001H38.7296C39.4496 42.8001 40.2195 42.7501 41.0595 42.6401C41.8995 42.5401 42.6595 42.3201 43.3695 41.9901C44.0695 41.6601 44.6495 41.1801 45.1195 40.5601C45.5795 39.9301 45.8095 39.1001 45.8095 38.0501C45.8095 36.3801 45.2396 35.2101 44.1096 34.5601C42.9696 33.9001 41.2595 33.5701 38.9595 33.5701H33.6696V42.8001Z" fill="white"/>
<path d="M58.1292 15.8301H79.1392V20.7601H63.7692V28.8301H78.3292V33.5801H63.7692V42.5401H79.9391V47.5601H58.1191V15.8401L58.1292 15.8301Z" fill="white"/>
<path d="M92.9895 20.7501H83.2695V15.8201H108.36V20.7501H98.6395V47.5401H92.9895V20.7501Z" fill="white"/>
<path d="M120.409 15.8301H125.289L138.959 47.5501H132.509L129.549 40.2901H115.799L112.929 47.5501H106.609L120.409 15.8301ZM127.569 35.4501L122.689 22.5501L117.719 35.4501H127.579H127.569Z" fill="white"/>
<path d="M100.07 189.39C98.1798 192.23 95.8898 194.92 93.2098 197.45C90.5298 199.98 87.4198 202.21 83.8998 204.13C80.3698 206.05 76.4798 207.58 72.2198 208.7C67.9598 209.82 63.2998 210.38 58.2498 210.38C49.8298 210.38 42.0498 208.91 34.8898 205.96C27.7298 203.02 21.5798 198.94 16.4198 193.73C11.2598 188.52 7.23979 182.34 4.34979 175.18C1.44979 168.03 0.00976562 160.19 0.00976562 151.66C0.00976562 143.13 1.47975 135.3 4.42975 128.14C7.36975 120.99 11.4498 114.8 16.6598 109.59C21.8698 104.38 28.0198 100.3 35.1298 97.36C42.2298 94.41 49.9398 92.9399 58.2498 92.9399C62.3498 92.9399 66.3798 93.3699 70.3198 94.2199C74.2598 95.0699 77.9698 96.28 81.4498 97.83C84.9298 99.38 88.0798 101.24 90.9198 103.41C93.7598 105.58 96.1298 108.04 98.0198 110.77L88.5498 117.71C87.3898 115.92 85.8398 114.13 83.8898 112.34C81.9398 110.55 79.6498 108.97 77.0198 107.61C74.3898 106.24 71.5198 105.14 68.4198 104.29C65.3198 103.45 61.9698 103.03 58.3998 103.03C51.1398 103.03 44.6398 104.34 38.9098 106.96C33.1698 109.59 28.3098 113.12 24.3098 117.58C20.3098 122.04 17.2598 127.2 15.1598 133.08C13.0498 138.95 11.9998 145.14 11.9998 151.64C11.9998 158.14 13.0797 164.33 15.2397 170.21C17.3897 176.08 20.4698 181.25 24.4698 185.7C28.4698 190.16 33.3298 193.7 39.0698 196.32C44.7998 198.94 51.2498 200.25 58.3998 200.25C64.8198 200.25 70.9198 198.94 76.7098 196.3C82.4998 193.67 87.3398 189.46 91.2298 183.68L100.07 189.36V189.39Z" fill="black"/>
<path d="M190.5 170.61C190.5 176.19 189.53 181.34 187.58 186.08C185.63 190.81 182.92 194.92 179.45 198.39C175.98 201.86 171.82 204.57 166.98 206.52C162.14 208.47 156.82 209.44 151.04 209.44C145.26 209.44 140.1 208.47 135.26 206.52C130.42 204.57 126.26 201.86 122.79 198.39C119.32 194.92 116.61 190.81 114.66 186.08C112.71 181.35 111.74 176.19 111.74 170.61C111.74 165.03 112.71 159.88 114.66 155.14C116.61 150.41 119.32 146.3 122.79 142.83C126.26 139.36 130.42 136.65 135.26 134.7C140.1 132.75 145.36 131.78 151.04 131.78C156.72 131.78 162.14 132.75 166.98 134.7C171.82 136.65 175.98 139.36 179.45 142.83C182.92 146.3 185.63 150.41 187.58 155.14C189.53 159.88 190.5 165.03 190.5 170.61ZM179.14 170.61C179.14 166.51 178.48 162.64 177.17 159.01C175.85 155.38 173.99 152.22 171.57 149.54C169.15 146.86 166.2 144.72 162.73 143.15C159.26 141.57 155.36 140.78 151.05 140.78C146.74 140.78 142.87 141.57 139.45 143.15C136.03 144.73 133.11 146.86 130.69 149.54C128.27 152.22 126.4 155.38 125.09 159.01C123.77 162.64 123.12 166.51 123.12 170.61C123.12 174.71 123.78 178.58 125.09 182.21C126.4 185.84 128.27 189 130.69 191.68C133.11 194.36 136.03 196.47 139.45 197.99C142.87 199.52 146.73 200.28 151.05 200.28C155.37 200.28 159.26 199.52 162.73 197.99C166.2 196.47 169.15 194.36 171.57 191.68C173.99 189 175.86 185.84 177.17 182.21C178.48 178.58 179.14 174.71 179.14 170.61Z" fill="black"/>
<path d="M223.17 133.68C223.38 135.68 223.54 137.89 223.64 140.31C223.74 142.73 223.8 144.73 223.8 146.31H224.12C226.22 142 229.64 138.5 234.38 135.81C239.12 133.13 244.11 131.79 249.37 131.79C258.73 131.79 265.76 134.58 270.44 140.16C275.12 145.74 277.46 153.1 277.46 162.26V207.56H266.73V166.68C266.73 162.79 266.42 159.26 265.78 156.11C265.15 152.95 264.07 150.25 262.54 147.98C261.01 145.72 258.96 143.96 256.38 142.69C253.8 141.43 250.57 140.8 246.68 140.8C243.84 140.8 241.08 141.38 238.39 142.54C235.71 143.7 233.31 145.46 231.21 147.83C229.1 150.2 227.42 153.2 226.16 156.82C224.9 160.45 224.27 164.74 224.27 169.68V207.56H213.54V149.95C213.54 147.96 213.49 145.38 213.38 142.22C213.27 139.06 213.12 136.22 212.91 133.7H223.17V133.68Z" fill="black"/>
<path d="M338.54 142.68H317.71V185.77C317.71 188.51 317.97 190.77 318.5 192.56C319.03 194.35 319.79 195.74 320.79 196.74C321.79 197.74 322.97 198.42 324.34 198.79C325.71 199.16 327.18 199.34 328.76 199.34C330.23 199.34 331.78 199.13 333.42 198.71C335.06 198.29 336.6 197.71 338.08 196.97L338.55 206.28C336.66 207.02 334.68 207.57 332.63 207.93C330.58 208.3 328.34 208.48 325.92 208.48C323.92 208.48 321.82 208.22 319.61 207.69C317.4 207.16 315.35 206.17 313.46 204.69C311.56 203.22 310.01 201.22 308.8 198.69C307.59 196.16 306.98 192.85 306.98 188.74V142.65H291.67V133.65H306.98V112.82H317.71V133.65H338.54V142.65V142.68Z" fill="black"/>
<path d="M355.11 142.2C355.01 139.04 354.85 136.2 354.64 133.68H364.9C365.11 135.68 365.27 137.89 365.37 140.31C365.47 142.73 365.53 144.73 365.53 146.31H365.85C367.95 142 371.11 138.5 375.32 135.81C379.53 133.13 384.26 131.79 389.53 131.79C390.89 131.79 392.13 131.85 393.24 131.95C394.35 132.06 395.47 132.27 396.63 132.58L395.21 142.84C394.58 142.63 393.53 142.42 392.05 142.21C390.58 142 389.1 141.9 387.63 141.9C384.79 141.9 382.05 142.42 379.42 143.47C376.79 144.52 374.5 146.17 372.55 148.43C370.6 150.69 369.03 153.57 367.82 157.09C366.61 160.61 366.01 164.83 366.01 169.77V207.56H355.28V149.95C355.28 147.96 355.23 145.38 355.12 142.22L355.11 142.2Z" fill="black"/>
<path d="M456.749 159.74C456.749 153.37 455.069 148.62 451.699 145.48C448.329 142.35 443.439 140.78 437.019 140.78C432.599 140.78 428.499 141.57 424.709 143.15C420.919 144.73 417.709 146.83 415.079 149.46L409.079 142.36C412.129 139.31 416.149 136.79 421.149 134.78C426.149 132.78 431.809 131.78 438.119 131.78C442.119 131.78 445.849 132.33 449.329 133.44C452.809 134.55 455.849 136.2 458.479 138.41C461.109 140.62 463.159 143.41 464.629 146.77C466.099 150.14 466.839 154.08 466.839 158.61V190.97C466.839 193.81 466.939 196.76 467.159 199.81C467.369 202.86 467.679 205.44 468.109 207.55H458.479C458.159 205.76 457.899 203.82 457.689 201.71C457.479 199.6 457.379 197.55 457.379 195.55H457.059C453.689 200.5 449.879 204.05 445.619 206.2C441.359 208.36 436.229 209.44 430.229 209.44C427.389 209.44 424.469 209.04 421.469 208.25C418.469 207.46 415.729 206.17 413.259 204.37C410.789 202.58 408.729 200.25 407.099 197.4C405.469 194.55 404.649 191.07 404.649 186.95C404.649 181.25 406.099 176.74 408.989 173.41C411.879 170.09 415.749 167.61 420.589 165.97C425.429 164.33 430.979 163.28 437.239 162.8C443.499 162.33 449.999 162.09 456.729 162.09V159.74H456.749ZM453.599 170.61C449.179 170.61 444.739 170.8 440.259 171.16C435.789 171.53 431.739 172.27 428.109 173.37C424.479 174.48 421.509 176.08 419.189 178.18C416.879 180.29 415.719 183.07 415.719 186.55C415.719 189.18 416.219 191.39 417.219 193.18C418.219 194.97 419.559 196.42 421.239 197.52C422.919 198.63 424.789 199.42 426.839 199.89C428.889 200.36 430.969 200.6 433.079 200.6C436.869 200.6 440.229 199.94 443.179 198.63C446.129 197.32 448.599 195.53 450.599 193.26C452.599 191 454.119 188.39 455.179 185.45C456.229 182.5 456.759 179.4 456.759 176.14V170.61H453.599Z" fill="black"/>
<path d="M547.659 150.57C545.869 147.73 543.269 145.39 539.849 143.54C536.429 141.7 532.719 140.78 528.719 140.78C524.399 140.78 520.509 141.54 517.039 143.07C513.569 144.6 510.599 146.7 508.119 149.38C505.649 152.06 503.749 155.22 502.439 158.85C501.119 162.48 500.469 166.4 500.469 170.61C500.469 174.82 501.119 178.71 502.439 182.29C503.749 185.87 505.619 189 508.039 191.68C510.459 194.36 513.409 196.47 516.879 197.99C520.349 199.52 524.239 200.28 528.559 200.28C533.289 200.28 537.289 199.39 540.559 197.6C543.819 195.81 546.499 193.5 548.609 190.66L556.659 196.66C553.499 200.55 549.639 203.66 545.059 205.97C540.479 208.28 534.979 209.44 528.569 209.44C522.569 209.44 517.149 208.47 512.309 206.52C507.469 204.57 503.339 201.86 499.919 198.39C496.499 194.92 493.839 190.81 491.949 186.08C490.059 181.35 489.109 176.19 489.109 170.61C489.109 165.03 490.059 159.88 491.949 155.14C493.839 150.41 496.499 146.3 499.919 142.83C503.339 139.36 507.469 136.65 512.309 134.7C517.149 132.75 522.569 131.78 528.569 131.78C533.509 131.78 538.539 132.86 543.639 135.02C548.739 137.18 552.869 140.36 556.029 144.57L547.659 150.57Z" fill="black"/>
<path d="M606.69 142.68H585.86V185.77C585.86 188.51 586.12 190.77 586.65 192.56C587.18 194.35 587.94 195.74 588.94 196.74C589.94 197.74 591.12 198.42 592.49 198.79C593.86 199.16 595.33 199.34 596.91 199.34C598.38 199.34 599.93 199.13 601.57 198.71C603.21 198.29 604.75 197.71 606.23 196.97L606.7 206.28C604.81 207.02 602.83 207.57 600.78 207.93C598.73 208.3 596.49 208.48 594.07 208.48C592.07 208.48 589.97 208.22 587.76 207.69C585.55 207.16 583.5 206.17 581.61 204.69C579.71 203.22 578.16 201.22 576.95 198.69C575.74 196.16 575.13 192.85 575.13 188.74V142.65H559.82V133.65H575.13V112.82H585.86V133.65H606.69V142.65V142.68Z" fill="black"/>
<path d="M645.629 209.66H623.27L683.177 94.0234H709.037L730.606 209.66H708.246L692.719 117.738H691.816L645.629 209.66ZM653.873 164.32H714.853L712.029 181.146H651.049L653.873 164.32Z" fill="#5000FE"/>
<path d="M785.982 94.0234L766.785 209.66H745.837L765.034 94.0234H785.982Z" fill="#9664FA"/>
</svg>
