<svg width="443" height="200" viewBox="0 0 443 200" fill="none" xmlns="http://www.w3.org/2000/svg">
<rect width="442.67" height="200" fill="#282828"/>
<g clip-path="url(#clip0_408_54)">
<rect x="16" y="39" width="410.67" height="144" rx="8" fill="white" fill-opacity="0.05"/>
<rect opacity="0.3" x="29" y="52" width="384.67" height="6" rx="3" fill="#636363"/>
<rect opacity="0.3" x="29" y="66" width="384.67" height="6" rx="3" fill="#636363"/>
<rect opacity="0.3" x="29" y="80" width="384.67" height="6" rx="3" fill="#636363"/>
<rect opacity="0.3" x="29" y="94" width="384.67" height="6" rx="3" fill="#636363"/>
<rect opacity="0.3" x="29" y="108" width="384.67" height="6" rx="3" fill="#636363"/>
<rect x="29.8398" y="126.5" width="383" height="41" rx="3.5" stroke="white" stroke-opacity="0.1"/>
<g filter="url(#filter0_dd_408_54)">
<rect x="29.3398" y="126" width="383.67" height="41.5" rx="4" fill="#333333"/>
<rect x="29.8398" y="126.5" width="382.67" height="40.5" rx="3.5" stroke="white" stroke-opacity="0.05"/>
</g>
<path d="M42.3398 138.125C41.668 138.125 41.0352 138.254 40.4414 138.512C39.8477 138.762 39.3301 139.107 38.8887 139.549C38.4473 139.99 38.1016 140.508 37.8516 141.102C37.5938 141.695 37.4648 142.328 37.4648 143C37.4648 143.672 37.5938 144.305 37.8516 144.898C38.1016 145.492 38.4473 146.01 38.8887 146.451C39.3301 146.893 39.8477 147.238 40.4414 147.488C41.0352 147.746 41.668 147.875 42.3398 147.875C43.0117 147.875 43.6445 147.746 44.2383 147.488C44.832 147.238 45.3496 146.893 45.791 146.451C46.2324 146.01 46.5781 145.492 46.8281 144.898C47.0859 144.305 47.2148 143.672 47.2148 143C47.2148 142.328 47.0859 141.695 46.8281 141.102C46.5703 140.508 46.2227 139.992 45.7852 139.555C45.3477 139.117 44.832 138.77 44.2383 138.512C43.6445 138.254 43.0117 138.125 42.3398 138.125ZM41.9648 140.75C41.9648 140.648 42.002 140.561 42.0762 140.486C42.1504 140.412 42.2383 140.375 42.3398 140.375C42.4414 140.375 42.5293 140.412 42.6035 140.486C42.6777 140.561 42.7148 140.648 42.7148 140.75V143.375C42.7148 143.477 42.6777 143.564 42.6035 143.639C42.5293 143.713 42.4414 143.75 42.3398 143.75C42.2383 143.75 42.1504 143.713 42.0762 143.639C42.002 143.564 41.9648 143.477 41.9648 143.375V140.75ZM42.3398 145.625C42.1836 145.625 42.0508 145.57 41.9414 145.461C41.832 145.352 41.7773 145.219 41.7773 145.062C41.7773 144.906 41.832 144.773 41.9414 144.664C42.0508 144.555 42.1836 144.5 42.3398 144.5C42.4961 144.5 42.6289 144.555 42.7383 144.664C42.8477 144.773 42.9023 144.906 42.9023 145.062C42.9023 145.219 42.8477 145.352 42.7383 145.461C42.6289 145.57 42.4961 145.625 42.3398 145.625Z" fill="#EAB308"/>
<path d="M56.5238 143H55.3478V134.324H56.5238L60.9638 141.032V134.324H62.1398V143H60.9638L56.5238 136.292V143ZM63.5843 140.06C63.5843 138.248 64.8803 136.976 66.6443 136.976C68.3963 136.976 69.6923 138.248 69.6923 140.06C69.6923 141.872 68.3963 143.144 66.6443 143.144C64.8803 143.144 63.5843 141.872 63.5843 140.06ZM64.7243 140.06C64.7243 141.284 65.5043 142.136 66.6443 142.136C67.7723 142.136 68.5643 141.284 68.5643 140.06C68.5643 138.836 67.7723 137.984 66.6443 137.984C65.5043 137.984 64.7243 138.836 64.7243 140.06ZM72.069 143H70.941V137.132H71.961L72.081 138.032C72.453 137.36 73.197 136.964 74.025 136.964C75.573 136.964 76.281 137.912 76.281 139.412V143H75.153V139.664C75.153 138.476 74.601 137.996 73.737 137.996C72.681 137.996 72.069 138.752 72.069 139.892V143ZM77.7833 140.324V139.316H81.4433V140.324H77.7833ZM82.4844 141.296H83.5644C83.5644 141.896 84.0204 142.256 84.7644 142.256C85.5564 142.256 86.0124 141.932 86.0124 141.392C86.0124 140.996 85.8204 140.756 85.2084 140.6L84.1764 140.36C83.1324 140.108 82.6404 139.592 82.6404 138.728C82.6404 137.648 83.5524 136.964 84.8484 136.964C86.1324 136.964 86.9724 137.684 86.9964 138.8H85.9164C85.8924 138.212 85.4964 137.84 84.8124 137.84C84.1044 137.84 83.7084 138.152 83.7084 138.692C83.7084 139.088 83.9964 139.352 84.5724 139.496L85.6044 139.748C86.6004 139.988 87.0924 140.444 87.0924 141.32C87.0924 142.436 86.1324 143.144 84.7404 143.144C83.3604 143.144 82.4844 142.412 82.4844 141.296ZM89.9993 143H88.8713V138.08H87.7193V137.132H88.8713V135.296H89.9993V137.132H91.1513V138.08H89.9993V143ZM93.8093 143.144C92.5493 143.144 91.8053 142.436 91.8053 141.368C91.8053 140.288 92.6093 139.616 93.9893 139.508L95.8373 139.364V139.196C95.8373 138.212 95.2493 137.864 94.4573 137.864C93.5093 137.864 92.9693 138.284 92.9693 138.992H91.9853C91.9853 137.768 92.9933 136.964 94.5053 136.964C95.9573 136.964 96.9413 137.732 96.9413 139.316V143H95.9813L95.8613 142.052C95.5613 142.724 94.7573 143.144 93.8093 143.144ZM94.1333 142.268C95.2013 142.268 95.8493 141.572 95.8493 140.468V140.156L94.3493 140.276C93.3533 140.372 92.9453 140.756 92.9453 141.332C92.9453 141.956 93.4013 142.268 94.1333 142.268ZM99.6315 143H98.5035V137.132H99.5235L99.6435 138.032C100.016 137.36 100.76 136.964 101.588 136.964C103.136 136.964 103.844 137.912 103.844 139.412V143H102.716V139.664C102.716 138.476 102.164 137.996 101.3 137.996C100.244 137.996 99.6315 138.752 99.6315 139.892V143ZM107.758 143.144C106.054 143.144 105.022 141.872 105.022 140.084C105.022 138.284 106.066 136.964 107.806 136.964C108.706 136.964 109.462 137.36 109.858 138.08V134.168H110.974V143H109.966L109.87 141.932C109.486 142.736 108.694 143.144 107.758 143.144ZM107.986 142.124C109.138 142.124 109.846 141.272 109.846 140.048C109.846 138.848 109.138 137.984 107.986 137.984C106.834 137.984 106.162 138.848 106.162 140.048C106.162 141.26 106.834 142.124 107.986 142.124ZM114.317 143.144C113.057 143.144 112.313 142.436 112.313 141.368C112.313 140.288 113.117 139.616 114.497 139.508L116.345 139.364V139.196C116.345 138.212 115.757 137.864 114.965 137.864C114.017 137.864 113.477 138.284 113.477 138.992H112.493C112.493 137.768 113.501 136.964 115.013 136.964C116.465 136.964 117.449 137.732 117.449 139.316V143H116.489L116.369 142.052C116.069 142.724 115.265 143.144 114.317 143.144ZM114.641 142.268C115.709 142.268 116.357 141.572 116.357 140.468V140.156L114.857 140.276C113.861 140.372 113.453 140.756 113.453 141.332C113.453 141.956 113.909 142.268 114.641 142.268ZM122.371 137.084V138.116H121.867C120.799 138.116 120.139 138.764 120.139 139.892V143H119.011V137.144H120.067L120.139 138.032C120.379 137.42 120.967 137.012 121.771 137.012C121.975 137.012 122.143 137.036 122.371 137.084ZM125.57 143.144C123.866 143.144 122.834 141.872 122.834 140.084C122.834 138.284 123.878 136.964 125.618 136.964C126.518 136.964 127.274 137.36 127.67 138.08V134.168H128.786V143H127.778L127.682 141.932C127.298 142.736 126.506 143.144 125.57 143.144ZM125.798 142.124C126.95 142.124 127.658 141.272 127.658 140.048C127.658 138.848 126.95 137.984 125.798 137.984C124.646 137.984 123.974 138.848 123.974 140.048C123.974 141.26 124.646 142.124 125.798 142.124ZM134.847 143H133.719V134.168H134.847V143ZM137.059 135.74C136.651 135.74 136.315 135.404 136.315 134.996C136.315 134.576 136.651 134.252 137.059 134.252C137.467 134.252 137.803 134.576 137.803 134.996C137.803 135.404 137.467 135.74 137.059 135.74ZM136.507 143V137.132H137.635V143H136.507ZM140.989 143.144C139.729 143.144 138.985 142.436 138.985 141.368C138.985 140.288 139.789 139.616 141.169 139.508L143.017 139.364V139.196C143.017 138.212 142.429 137.864 141.637 137.864C140.689 137.864 140.149 138.284 140.149 138.992H139.165C139.165 137.768 140.173 136.964 141.685 136.964C143.137 136.964 144.121 137.732 144.121 139.316V143H143.161L143.041 142.052C142.741 142.724 141.937 143.144 140.989 143.144ZM141.313 142.268C142.381 142.268 143.029 141.572 143.029 140.468V140.156L141.529 140.276C140.533 140.372 140.125 140.756 140.125 141.332C140.125 141.956 140.581 142.268 141.313 142.268ZM146.703 143H145.683V134.168H146.811V138.14C147.195 137.372 147.987 136.964 148.947 136.964C150.627 136.964 151.635 138.284 151.635 140.096C151.635 141.872 150.579 143.144 148.875 143.144C147.951 143.144 147.171 142.736 146.787 141.932L146.703 143ZM146.823 140.048C146.823 141.272 147.519 142.124 148.671 142.124C149.823 142.124 150.507 141.26 150.507 140.048C150.507 138.848 149.823 137.984 148.671 137.984C147.519 137.984 146.823 138.848 146.823 140.048ZM153.431 135.74C153.023 135.74 152.687 135.404 152.687 134.996C152.687 134.576 153.023 134.252 153.431 134.252C153.839 134.252 154.175 134.576 154.175 134.996C154.175 135.404 153.839 135.74 153.431 135.74ZM152.879 143V137.132H154.007V143H152.879ZM156.796 143H155.668V134.168H156.796V143ZM159.009 135.74C158.601 135.74 158.265 135.404 158.265 134.996C158.265 134.576 158.601 134.252 159.009 134.252C159.417 134.252 159.753 134.576 159.753 134.996C159.753 135.404 159.417 135.74 159.009 135.74ZM158.457 143V137.132H159.585V143H158.457ZM162.878 143H161.75V138.08H160.598V137.132H161.75V135.296H162.878V137.132H164.03V138.08H162.878V143ZM164.479 145.628V144.704H165.235C165.775 144.704 166.207 144.62 166.483 143.876L166.687 143.312L164.323 137.132H165.511L167.215 141.86L168.955 137.132H170.119L167.347 144.32C166.951 145.328 166.363 145.748 165.463 145.748C165.091 145.748 164.779 145.7 164.479 145.628ZM173.916 140.072C173.916 138.236 175.08 136.964 176.796 136.964C178.272 136.964 179.304 137.804 179.508 139.112H178.38C178.188 138.368 177.588 137.972 176.832 137.972C175.764 137.972 175.032 138.788 175.032 140.06C175.032 141.32 175.716 142.136 176.784 142.136C177.588 142.136 178.188 141.716 178.392 141.02H179.52C179.292 142.292 178.2 143.144 176.784 143.144C175.056 143.144 173.916 141.92 173.916 140.072ZM181.863 143H180.735V134.168H181.863V143ZM185.239 143.144C183.979 143.144 183.235 142.436 183.235 141.368C183.235 140.288 184.039 139.616 185.419 139.508L187.267 139.364V139.196C187.267 138.212 186.679 137.864 185.887 137.864C184.939 137.864 184.399 138.284 184.399 138.992H183.415C183.415 137.768 184.423 136.964 185.935 136.964C187.387 136.964 188.371 137.732 188.371 139.316V143H187.411L187.291 142.052C186.991 142.724 186.187 143.144 185.239 143.144ZM185.563 142.268C186.631 142.268 187.279 141.572 187.279 140.468V140.156L185.779 140.276C184.783 140.372 184.375 140.756 184.375 141.332C184.375 141.956 184.831 142.268 185.563 142.268ZM193.989 137.132H195.105V143H194.097L193.977 142.112C193.641 142.724 192.861 143.144 191.997 143.144C190.629 143.144 189.861 142.22 189.861 140.78V137.132H190.989V140.408C190.989 141.668 191.529 142.148 192.393 142.148C193.425 142.148 193.989 141.488 193.989 140.228V137.132ZM196.145 141.296H197.225C197.225 141.896 197.681 142.256 198.425 142.256C199.217 142.256 199.673 141.932 199.673 141.392C199.673 140.996 199.481 140.756 198.869 140.6L197.837 140.36C196.793 140.108 196.301 139.592 196.301 138.728C196.301 137.648 197.213 136.964 198.509 136.964C199.793 136.964 200.633 137.684 200.657 138.8H199.577C199.553 138.212 199.157 137.84 198.473 137.84C197.765 137.84 197.369 138.152 197.369 138.692C197.369 139.088 197.657 139.352 198.233 139.496L199.265 139.748C200.261 139.988 200.753 140.444 200.753 141.32C200.753 142.436 199.793 143.144 198.401 143.144C197.021 143.144 196.145 142.412 196.145 141.296ZM204.536 143.144C202.808 143.144 201.62 141.896 201.62 140.072C201.62 138.236 202.784 136.964 204.488 136.964C206.156 136.964 207.247 138.116 207.247 139.856V140.276L202.712 140.288C202.796 141.524 203.444 142.208 204.56 142.208C205.436 142.208 206.012 141.848 206.204 141.176H207.26C206.972 142.436 205.988 143.144 204.536 143.144ZM204.488 137.912C203.504 137.912 202.88 138.5 202.736 139.532H206.12C206.12 138.56 205.484 137.912 204.488 137.912ZM214.141 143.144C212.437 143.144 211.405 141.872 211.405 140.084C211.405 138.284 212.449 136.964 214.189 136.964C215.089 136.964 215.845 137.36 216.241 138.08V134.168H217.357V143H216.349L216.253 141.932C215.869 142.736 215.077 143.144 214.141 143.144ZM214.369 142.124C215.521 142.124 216.229 141.272 216.229 140.048C216.229 138.848 215.521 137.984 214.369 137.984C213.217 137.984 212.545 138.848 212.545 140.048C212.545 141.26 213.217 142.124 214.369 142.124ZM221.516 143.144C219.788 143.144 218.6 141.896 218.6 140.072C218.6 138.236 219.764 136.964 221.468 136.964C223.136 136.964 224.228 138.116 224.228 139.856V140.276L219.692 140.288C219.776 141.524 220.424 142.208 221.54 142.208C222.416 142.208 222.992 141.848 223.184 141.176H224.24C223.952 142.436 222.968 143.144 221.516 143.144ZM221.468 137.912C220.484 137.912 219.86 138.5 219.716 139.532H223.1C223.1 138.56 222.464 137.912 221.468 137.912ZM227.085 143H225.957V138.08H224.805V137.132H225.957V135.296H227.085V137.132H228.237V138.08H227.085V143ZM231.723 143.144C229.995 143.144 228.807 141.896 228.807 140.072C228.807 138.236 229.971 136.964 231.675 136.964C233.343 136.964 234.435 138.116 234.435 139.856V140.276L229.899 140.288C229.983 141.524 230.631 142.208 231.747 142.208C232.623 142.208 233.199 141.848 233.391 141.176H234.447C234.159 142.436 233.175 143.144 231.723 143.144ZM231.675 137.912C230.691 137.912 230.067 138.5 229.923 139.532H233.307C233.307 138.56 232.671 137.912 231.675 137.912ZM235.311 140.072C235.311 138.236 236.475 136.964 238.191 136.964C239.667 136.964 240.699 137.804 240.903 139.112H239.775C239.583 138.368 238.983 137.972 238.227 137.972C237.159 137.972 236.427 138.788 236.427 140.06C236.427 141.32 237.111 142.136 238.179 142.136C238.983 142.136 239.583 141.716 239.787 141.02H240.915C240.687 142.292 239.595 143.144 238.179 143.144C236.451 143.144 235.311 141.92 235.311 140.072ZM243.761 143H242.633V138.08H241.481V137.132H242.633V135.296H243.761V137.132H244.913V138.08H243.761V143ZM248.399 143.144C246.671 143.144 245.483 141.896 245.483 140.072C245.483 138.236 246.647 136.964 248.351 136.964C250.019 136.964 251.111 138.116 251.111 139.856V140.276L246.575 140.288C246.659 141.524 247.307 142.208 248.423 142.208C249.299 142.208 249.875 141.848 250.067 141.176H251.123C250.835 142.436 249.851 143.144 248.399 143.144ZM248.351 137.912C247.367 137.912 246.743 138.5 246.599 139.532H249.983C249.983 138.56 249.347 137.912 248.351 137.912ZM254.723 143.144C253.019 143.144 251.987 141.872 251.987 140.084C251.987 138.284 253.031 136.964 254.771 136.964C255.671 136.964 256.427 137.36 256.823 138.08V134.168H257.939V143H256.931L256.835 141.932C256.451 142.736 255.659 143.144 254.723 143.144ZM254.951 142.124C256.103 142.124 256.811 141.272 256.811 140.048C256.811 138.848 256.103 137.984 254.951 137.984C253.799 137.984 253.127 138.848 253.127 140.048C253.127 141.26 253.799 142.124 254.951 142.124ZM260.406 143.144C259.938 143.144 259.542 142.76 259.542 142.304C259.542 141.836 259.938 141.452 260.406 141.452C260.862 141.452 261.258 141.836 261.258 142.304C261.258 142.76 260.862 143.144 260.406 143.144Z" fill="#E2E8F0"/>
<path d="M55.2098 158.5H54.4798L57.1098 151.34H57.9998L60.6598 158.5H59.9098L59.2098 156.6H55.9098L55.2098 158.5ZM57.4598 152.35L56.1298 155.97H58.9798L57.6398 152.35C57.6098 152.25 57.5598 152.13 57.5498 152.06C57.5398 152.12 57.4998 152.25 57.4598 152.35ZM61.5052 160.61V153.66H62.1052L62.1752 154.64C62.5152 153.89 63.1952 153.53 64.0052 153.53C65.4052 153.53 66.2452 154.6 66.2452 156.06C66.2452 157.52 65.4352 158.62 64.0052 158.62C63.1852 158.62 62.5352 158.27 62.1952 157.57V160.61H61.5052ZM62.2052 156.08C62.2052 157.19 62.8252 158 63.8852 158C64.9352 158 65.5452 157.19 65.5452 156.08C65.5452 154.96 64.9352 154.16 63.8852 154.16C62.8252 154.16 62.2052 154.96 62.2052 156.08ZM67.345 160.61V153.66H67.945L68.015 154.64C68.355 153.89 69.035 153.53 69.845 153.53C71.245 153.53 72.085 154.6 72.085 156.06C72.085 157.52 71.275 158.62 69.845 158.62C69.025 158.62 68.375 158.27 68.035 157.57V160.61H67.345ZM68.045 156.08C68.045 157.19 68.665 158 69.725 158C70.775 158 71.385 157.19 71.385 156.08C71.385 154.96 70.775 154.16 69.725 154.16C68.665 154.16 68.045 154.96 68.045 156.08ZM73.9048 158.5H73.2148V151.21H73.9048V158.5ZM74.8823 160.61V160.04H75.4123C75.8323 160.04 76.2523 160.01 76.4923 159.36L76.7023 158.79L74.7423 153.66H75.4723L77.0323 157.88L78.5623 153.66H79.2723L77.0523 159.61C76.7723 160.37 76.3023 160.68 75.6123 160.68C75.3223 160.68 75.1023 160.66 74.8823 160.61ZM82.4428 157.14H83.1028C83.1028 157.7 83.5228 158.05 84.2028 158.05C84.9528 158.05 85.3928 157.73 85.3928 157.21C85.3928 156.81 85.1928 156.58 84.6228 156.44L83.7928 156.23C82.9528 156.02 82.5428 155.58 82.5428 154.92C82.5428 154.07 83.2528 153.53 84.2928 153.53C85.3128 153.53 85.9728 154.09 86.0028 154.99H85.3328C85.3128 154.43 84.9228 154.1 84.2728 154.1C83.5928 154.1 83.2128 154.39 83.2128 154.91C83.2128 155.28 83.4728 155.54 84.0028 155.67L84.8328 155.88C85.6728 156.09 86.0528 156.48 86.0528 157.18C86.0528 158.05 85.3128 158.62 84.2128 158.62C83.1228 158.62 82.4428 158.04 82.4428 157.14ZM88.2988 158.5H87.6188V154.24H86.6488V153.66H87.6188V152.13H88.2988V153.66H89.2688V154.24H88.2988V158.5ZM91.4791 158.62C90.4491 158.62 89.8391 158.04 89.8391 157.19C89.8391 156.3 90.5191 155.74 91.6491 155.65L93.2491 155.52V155.36C93.2491 154.41 92.6791 154.11 91.9691 154.11C91.1291 154.11 90.6291 154.49 90.6291 155.14H89.9991C89.9991 154.16 90.7991 153.53 91.9891 153.53C93.1091 153.53 93.9291 154.09 93.9291 155.37V158.5H93.3491L93.2591 157.65C92.9591 158.26 92.2991 158.62 91.4791 158.62ZM91.6391 158.06C92.6591 158.06 93.2491 157.35 93.2491 156.3V156.04L91.8191 156.15C90.9091 156.23 90.5391 156.63 90.5391 157.17C90.5391 157.76 90.9791 158.06 91.6391 158.06ZM96.0038 158.5H95.3138V153.66H95.9137L96.0138 154.5C96.3338 153.88 96.9738 153.53 97.6738 153.53C99.0038 153.53 99.5538 154.32 99.5538 155.54V158.5H98.8638V155.69C98.8638 154.56 98.3538 154.16 97.5538 154.16C96.5638 154.16 96.0038 154.88 96.0038 155.97V158.5ZM102.829 158.62C101.419 158.62 100.589 157.54 100.589 156.09C100.589 154.63 101.419 153.53 102.859 153.53C103.659 153.53 104.299 153.88 104.639 154.58V151.21H105.329V158.5H104.729L104.659 157.51C104.319 158.26 103.639 158.62 102.829 158.62ZM102.949 157.99C104.009 157.99 104.629 157.19 104.629 156.07C104.629 154.96 104.009 154.15 102.949 154.15C101.899 154.15 101.289 154.96 101.289 156.07C101.289 157.19 101.899 157.99 102.949 157.99ZM108.159 158.62C107.129 158.62 106.519 158.04 106.519 157.19C106.519 156.3 107.199 155.74 108.329 155.65L109.929 155.52V155.36C109.929 154.41 109.359 154.11 108.649 154.11C107.809 154.11 107.309 154.49 107.309 155.14H106.679C106.679 154.16 107.479 153.53 108.669 153.53C109.789 153.53 110.609 154.09 110.609 155.37V158.5H110.029L109.939 157.65C109.639 158.26 108.979 158.62 108.159 158.62ZM108.319 158.06C109.339 158.06 109.929 157.35 109.929 156.3V156.04L108.499 156.15C107.589 156.23 107.219 156.63 107.219 157.17C107.219 157.76 107.659 158.06 108.319 158.06ZM114.523 153.6V154.22H114.143C113.253 154.22 112.683 154.82 112.683 155.74V158.5H111.993V153.66H112.643L112.693 154.41C112.883 153.89 113.393 153.55 114.073 153.55C114.223 153.55 114.353 153.56 114.523 153.6ZM117.155 158.62C115.745 158.62 114.915 157.54 114.915 156.09C114.915 154.63 115.745 153.53 117.185 153.53C117.985 153.53 118.625 153.88 118.965 154.58V151.21H119.655V158.5H119.055L118.985 157.51C118.645 158.26 117.965 158.62 117.155 158.62ZM117.275 157.99C118.335 157.99 118.955 157.19 118.955 156.07C118.955 154.96 118.335 154.15 117.275 154.15C116.225 154.15 115.615 154.96 115.615 156.07C115.615 157.19 116.225 157.99 117.275 157.99ZM124.978 158.5H124.298V154.24H123.328V153.66H124.298V152.13H124.978V153.66H125.948V154.24H124.978V158.5ZM128.828 158.62C127.408 158.62 126.458 157.6 126.458 156.08C126.458 154.57 127.398 153.53 128.778 153.53C130.088 153.53 130.978 154.46 130.978 155.83V156.17H127.128C127.178 157.35 127.798 158.03 128.838 158.03C129.628 158.03 130.138 157.69 130.318 157.05H130.978C130.718 158.07 129.968 158.62 128.828 158.62ZM128.778 154.12C127.868 154.12 127.268 154.72 127.148 155.67H130.288C130.288 154.74 129.688 154.12 128.778 154.12ZM134.611 153.6V154.22H134.231C133.341 154.22 132.771 154.82 132.771 155.74V158.5H132.081V153.66H132.731L132.781 154.41C132.971 153.89 133.481 153.55 134.161 153.55C134.311 153.55 134.441 153.56 134.611 153.6ZM136.219 158.5H135.529V153.66H136.129L136.209 154.35C136.449 153.84 136.989 153.53 137.669 153.53C138.429 153.53 138.999 153.93 139.229 154.56C139.449 153.93 140.039 153.53 140.819 153.53C141.869 153.53 142.559 154.21 142.559 155.33V158.5H141.889V155.47C141.889 154.64 141.429 154.15 140.689 154.15C139.879 154.15 139.399 154.76 139.399 155.51V158.5H138.719V155.46C138.719 154.64 138.249 154.16 137.519 154.16C136.709 154.16 136.219 154.76 136.219 155.5V158.5ZM143.478 157.14H144.138C144.138 157.7 144.558 158.05 145.238 158.05C145.988 158.05 146.428 157.73 146.428 157.21C146.428 156.81 146.228 156.58 145.658 156.44L144.828 156.23C143.988 156.02 143.578 155.58 143.578 154.92C143.578 154.07 144.288 153.53 145.328 153.53C146.348 153.53 147.008 154.09 147.038 154.99H146.368C146.348 154.43 145.958 154.1 145.308 154.1C144.628 154.1 144.248 154.39 144.248 154.91C144.248 155.28 144.508 155.54 145.038 155.67L145.868 155.88C146.708 156.09 147.088 156.48 147.088 157.18C147.088 158.05 146.348 158.62 145.248 158.62C144.158 158.62 143.478 158.04 143.478 157.14ZM150.917 156.18V155.56H153.817V156.18H150.917ZM160.257 156.4L155.257 158.19V157.51L159.487 156.05L155.257 154.6V153.91L160.257 155.7V156.4Z" fill="#C084FC"/>
</g>
<rect x="16.5" y="39.5" width="409.67" height="143" rx="7.5" stroke="white" stroke-opacity="0.1"/>
<rect x="16" y="18.5" width="10" height="10" rx="5" fill="#C73E3E"/>
<rect x="32" y="18.5" width="10" height="10" rx="5" fill="#C3970E"/>
<rect x="48" y="18.5" width="10" height="10" rx="5" fill="#23A653"/>
<path d="M311.579 24.59C311.579 23.07 312.509 22.03 313.919 22.03C315.039 22.03 315.859 22.68 316.049 23.68H315.359C315.179 23.01 314.599 22.64 313.929 22.64C312.949 22.64 312.259 23.39 312.259 24.58C312.259 25.73 312.899 26.5 313.879 26.5C314.599 26.5 315.179 26.1 315.369 25.48H316.069C315.839 26.47 314.979 27.12 313.879 27.12C312.509 27.12 311.579 26.11 311.579 24.59ZM316.775 24.58C316.775 23.1 317.815 22.03 319.235 22.03C320.655 22.03 321.695 23.1 321.695 24.58C321.695 26.05 320.655 27.12 319.235 27.12C317.815 27.12 316.775 26.05 316.775 24.58ZM317.475 24.57C317.475 25.71 318.195 26.5 319.235 26.5C320.265 26.5 320.995 25.71 320.995 24.57C320.995 23.45 320.265 22.65 319.235 22.65C318.195 22.65 317.475 23.45 317.475 24.57ZM323.488 27H322.798V22.16H323.398L323.498 23C323.818 22.38 324.458 22.03 325.158 22.03C326.488 22.03 327.038 22.82 327.038 24.04V27H326.348V24.19C326.348 23.06 325.838 22.66 325.038 22.66C324.048 22.66 323.488 23.38 323.488 24.47V27ZM329.523 27H328.843V22.74H327.873V22.16H328.843V20.63H329.523V22.16H330.493V22.74H329.523V27ZM333.922 22.1V22.72H333.542C332.652 22.72 332.082 23.32 332.082 24.24V27H331.392V22.16H332.042L332.092 22.91C332.282 22.39 332.792 22.05 333.472 22.05C333.622 22.05 333.752 22.06 333.922 22.1ZM336.034 27.12C335.004 27.12 334.394 26.54 334.394 25.69C334.394 24.8 335.074 24.24 336.204 24.15L337.804 24.02V23.86C337.804 22.91 337.234 22.61 336.524 22.61C335.684 22.61 335.184 22.99 335.184 23.64H334.554C334.554 22.66 335.354 22.03 336.544 22.03C337.664 22.03 338.484 22.59 338.484 23.87V27H337.904L337.814 26.15C337.514 26.76 336.854 27.12 336.034 27.12ZM336.194 26.56C337.214 26.56 337.804 25.85 337.804 24.8V24.54L336.374 24.65C335.464 24.73 335.094 25.13 335.094 25.67C335.094 26.26 335.534 26.56 336.194 26.56ZM339.528 24.59C339.528 23.07 340.458 22.03 341.868 22.03C342.988 22.03 343.808 22.68 343.998 23.68H343.308C343.128 23.01 342.548 22.64 341.878 22.64C340.898 22.64 340.208 23.39 340.208 24.58C340.208 25.73 340.848 26.5 341.828 26.5C342.548 26.5 343.128 26.1 343.318 25.48H344.018C343.788 26.47 342.928 27.12 341.828 27.12C340.458 27.12 339.528 26.11 339.528 24.59ZM346.174 27H345.494V22.74H344.524V22.16H345.494V20.63H346.174V22.16H347.144V22.74H346.174V27ZM347.922 27.78V27.19H351.902V27.78H347.922ZM354.608 27.12C353.578 27.12 352.968 26.54 352.968 25.69C352.968 24.8 353.648 24.24 354.778 24.15L356.378 24.02V23.86C356.378 22.91 355.808 22.61 355.098 22.61C354.258 22.61 353.758 22.99 353.758 23.64H353.128C353.128 22.66 353.928 22.03 355.118 22.03C356.238 22.03 357.058 22.59 357.058 23.87V27H356.478L356.388 26.15C356.088 26.76 355.428 27.12 354.608 27.12ZM354.768 26.56C355.788 26.56 356.378 25.85 356.378 24.8V24.54L354.948 24.65C354.038 24.73 353.668 25.13 353.668 25.67C353.668 26.26 354.108 26.56 354.768 26.56ZM359.133 27H358.443V22.16H359.043L359.143 23C359.463 22.38 360.103 22.03 360.803 22.03C362.133 22.03 362.683 22.82 362.683 24.04V27H361.993V24.19C361.993 23.06 361.483 22.66 360.683 22.66C359.693 22.66 359.133 23.38 359.133 24.47V27ZM365.448 27.12C364.418 27.12 363.808 26.54 363.808 25.69C363.808 24.8 364.488 24.24 365.618 24.15L367.218 24.02V23.86C367.218 22.91 366.648 22.61 365.938 22.61C365.098 22.61 364.598 22.99 364.598 23.64H363.968C363.968 22.66 364.768 22.03 365.958 22.03C367.078 22.03 367.898 22.59 367.898 23.87V27H367.318L367.228 26.15C366.928 26.76 366.268 27.12 365.448 27.12ZM365.608 26.56C366.628 26.56 367.218 25.85 367.218 24.8V24.54L365.788 24.65C364.878 24.73 364.508 25.13 364.508 25.67C364.508 26.26 364.948 26.56 365.608 26.56ZM370.003 27H369.313V19.71H370.003V27ZM370.98 29.11V28.54H371.51C371.93 28.54 372.35 28.51 372.59 27.86L372.8 27.29L370.84 22.16H371.57L373.13 26.38L374.66 22.16H375.37L373.15 28.11C372.87 28.87 372.4 29.18 371.71 29.18C371.42 29.18 371.2 29.16 370.98 29.11ZM379.497 27H375.847V26.45L378.647 22.74H375.847V22.16H379.497V22.72L376.687 26.42H379.497V27ZM382.484 27.12C381.064 27.12 380.114 26.1 380.114 24.58C380.114 23.07 381.054 22.03 382.434 22.03C383.744 22.03 384.634 22.96 384.634 24.33V24.67H380.784C380.834 25.85 381.454 26.53 382.494 26.53C383.284 26.53 383.794 26.19 383.974 25.55H384.634C384.374 26.57 383.624 27.12 382.484 27.12ZM382.434 22.62C381.524 22.62 380.924 23.22 380.804 24.17H383.944C383.944 23.24 383.344 22.62 382.434 22.62ZM388.268 22.1V22.72H387.888C386.998 22.72 386.428 23.32 386.428 24.24V27H385.738V22.16H386.388L386.438 22.91C386.628 22.39 387.138 22.05 387.818 22.05C387.968 22.05 388.098 22.06 388.268 22.1ZM389.033 27.11C388.693 27.11 388.403 26.83 388.403 26.5C388.403 26.16 388.693 25.87 389.033 25.87C389.373 25.87 389.663 26.16 389.663 26.5C389.663 26.83 389.373 27.11 389.033 27.11ZM392.787 27.12C391.367 27.12 390.417 26.1 390.417 24.58C390.417 23.07 391.357 22.03 392.737 22.03C394.047 22.03 394.937 22.96 394.937 24.33V24.67H391.087C391.137 25.85 391.757 26.53 392.797 26.53C393.587 26.53 394.097 26.19 394.277 25.55H394.937C394.677 26.57 393.927 27.12 392.787 27.12ZM392.737 22.62C391.827 22.62 391.227 23.22 391.107 24.17H394.247C394.247 23.24 393.647 22.62 392.737 22.62ZM396.064 27H395.254L396.984 24.58L395.264 22.16H396.074L397.444 24.1L398.804 22.16H399.604L397.884 24.59L399.594 27H398.774L397.414 25.06L396.064 27ZM402.289 27.12C400.869 27.12 399.919 26.1 399.919 24.58C399.919 23.07 400.859 22.03 402.239 22.03C403.549 22.03 404.439 22.96 404.439 24.33V24.67H400.589C400.639 25.85 401.259 26.53 402.299 26.53C403.089 26.53 403.599 26.19 403.779 25.55H404.439C404.179 26.57 403.429 27.12 402.289 27.12ZM402.239 22.62C401.329 22.62 400.729 23.22 400.609 24.17H403.749C403.749 23.24 403.149 22.62 402.239 22.62Z" fill="#64748B"/>
<defs>
<filter id="filter0_dd_408_54" x="17.3398" y="124" width="407.67" height="65.5" filterUnits="userSpaceOnUse" color-interpolation-filters="sRGB">
<feFlood flood-opacity="0" result="BackgroundImageFix"/>
<feColorMatrix in="SourceAlpha" type="matrix" values="0 0 0 0 0 0 0 0 0 0 0 0 0 0 0 0 0 0 127 0" result="hardAlpha"/>
<feMorphology radius="4" operator="erode" in="SourceAlpha" result="effect1_dropShadow_408_54"/>
<feOffset dy="4"/>
<feGaussianBlur stdDeviation="3"/>
<feComposite in2="hardAlpha" operator="out"/>
<feColorMatrix type="matrix" values="0 0 0 0 0 0 0 0 0 0 0 0 0 0 0 0 0 0 0.1 0"/>
<feBlend mode="normal" in2="BackgroundImageFix" result="effect1_dropShadow_408_54"/>
<feColorMatrix in="SourceAlpha" type="matrix" values="0 0 0 0 0 0 0 0 0 0 0 0 0 0 0 0 0 0 127 0" result="hardAlpha"/>
<feMorphology radius="3" operator="erode" in="SourceAlpha" result="effect2_dropShadow_408_54"/>
<feOffset dy="10"/>
<feGaussianBlur stdDeviation="7.5"/>
<feComposite in2="hardAlpha" operator="out"/>
<feColorMatrix type="matrix" values="0 0 0 0 0 0 0 0 0 0 0 0 0 0 0 0 0 0 0.1 0"/>
<feBlend mode="normal" in2="effect1_dropShadow_408_54" result="effect2_dropShadow_408_54"/>
<feBlend mode="normal" in="SourceGraphic" in2="effect2_dropShadow_408_54" result="shape"/>
</filter>
<clipPath id="clip0_408_54">
<rect x="16" y="39" width="410.67" height="144" rx="8" fill="white"/>
</clipPath>
</defs>
</svg>
