<svg width="38" height="38" viewBox="0 0 38 38" fill="none" xmlns="http://www.w3.org/2000/svg">
<path d="M37.4316 8.55562C37.4316 3.83048 33.6011 0 28.8759 0C24.1508 0 20.3203 3.83048 20.3203 8.55562C20.3203 13.2808 24.1508 17.1112 28.8759 17.1112C33.6011 17.1112 37.4316 13.2808 37.4316 8.55562Z" fill="#5000FE"/>
<path d="M17.1112 0H0V17.1112H17.1112V0Z" fill="#5000FE"/>
<path d="M17.1112 28.8769C17.1112 24.1518 13.2808 20.3213 8.55562 20.3213C3.83048 20.3213 0 24.1518 0 28.8769C0 33.602 3.83048 37.4325 8.55562 37.4325C13.2808 37.4325 17.1112 33.602 17.1112 28.8769Z" fill="#9664FA"/>
<path d="M37.4316 20.3213H20.3203V37.4325H37.4316V20.3213Z" fill="#9664FA"/>
</svg>
