<svg width="128" height="38" viewBox="0 0 128 38" fill="none" xmlns="http://www.w3.org/2000/svg">
<path d="M37.4316 8.55562C37.4316 3.83048 33.6011 0 28.8759 0C24.1508 0 20.3203 3.83048 20.3203 8.55562C20.3203 13.2808 24.1508 17.1112 28.8759 17.1112C33.6011 17.1112 37.4316 13.2808 37.4316 8.55562Z" fill="#5000FE"/>
<path d="M17.1112 0H0V17.1112H17.1112V0Z" fill="#5000FE"/>
<path d="M17.1112 28.8769C17.1112 24.1518 13.2808 20.3213 8.55562 20.3213C3.83048 20.3213 0 24.1518 0 28.8769C0 33.602 3.83048 37.4325 8.55562 37.4325C13.2808 37.4325 17.1112 33.602 17.1112 28.8769Z" fill="#9664FA"/>
<path d="M37.4316 20.3213H20.3203V37.4325H37.4316V20.3213Z" fill="#9664FA"/>
<path d="M52.5457 3.63966H47.5117V0.283691H61.2192V3.63966H56.1853V16.8276H52.5457V3.63966Z" fill="#5000FE"/>
<path d="M75.0702 3.52321V0.283691H62.5898V6.87918H66.2056V3.52321H75.0702Z" fill="#5000FE"/>
<path d="M66.2056 13.5908V10.1154H74.0073V6.87891H66.2056V10.0736H62.5898V16.8304H75.1896V13.5908H66.2056Z" fill="#5000FE"/>
<path d="M76.2773 8.60489V8.55712C76.2773 3.85458 79.8214 0 84.9031 0C88.0232 0 89.8893 1.03904 91.427 2.5528L89.11 5.22205C87.8351 4.06359 86.5333 3.35597 84.8792 3.35597C82.0906 3.35597 80.0812 5.67289 80.0812 8.50934V8.55712C80.0812 11.3936 82.0428 13.7583 84.8792 13.7583C86.7692 13.7583 87.9277 13.0029 89.2295 11.8205L91.5464 14.1613C89.8445 15.9797 87.9546 17.1172 84.7628 17.1172C79.8931 17.1172 76.2773 13.3582 76.2773 8.60787V8.60489Z" fill="#5000FE"/>
<path d="M93.0352 0.283691H96.6748V6.83141H103.387V0.283691H107.026V16.8276H103.387V10.1874H96.6748V16.8276H93.0352V0.283691Z" fill="#5000FE"/>
<path d="M47.5117 34.7601L49.6644 32.1804C51.1543 33.4105 52.7188 34.1928 54.6118 34.1928C56.1047 34.1928 57.0034 33.6016 57.0034 32.6313V32.5835C57.0034 31.6609 56.4361 31.1862 53.6653 30.4785C50.3273 29.6276 48.1746 28.702 48.1746 25.4147V25.367C48.1746 22.3603 50.59 20.3718 53.9728 20.3718C56.3883 20.3718 58.4455 21.1302 60.1264 22.4768L58.2335 25.2236C56.7675 24.2055 55.3224 23.5905 53.9251 23.5905C52.5278 23.5905 51.7962 24.2294 51.7962 25.0355V25.0833C51.7962 26.1731 52.5069 26.5284 55.3702 27.2599C58.7321 28.1347 60.6251 29.344 60.6251 32.2312V32.2789C60.6251 35.5692 58.117 37.4144 54.5431 37.4144C52.0351 37.4144 49.5002 36.5396 47.5147 34.7631L47.5117 34.7601Z" fill="#9664FA"/>
<path d="M74.8703 23.851V20.6055H62.375V27.2099H65.9967V23.851H74.8703Z" fill="#9664FA"/>
<path d="M65.9967 33.9306V30.4522H73.8074V27.2097H65.9967V30.4074H62.375V37.1731H74.9897V33.9306H65.9967Z" fill="#9664FA"/>
<path d="M76.8145 20.6052H84.3893C86.4972 20.6052 88.1274 21.1964 89.2172 22.2862C90.1398 23.2088 90.6384 24.5106 90.6384 26.0721V26.1199C90.6384 28.7951 89.1933 30.4761 87.0884 31.2553L91.134 37.1731H86.8734L83.3234 31.8704H80.46V37.1731H76.8145V20.6052ZM84.1504 28.6548C85.9239 28.6548 86.9421 27.7083 86.9421 26.311V26.2632C86.9421 24.7017 85.8523 23.8955 84.0788 23.8955H80.4571V28.6518H84.1504V28.6548Z" fill="#9664FA"/>
<path d="M90.6143 20.6052H94.639L98.9713 32.2735L103.304 20.6052H107.233L100.536 37.2925H97.3172L90.6202 20.6052H90.6143Z" fill="#9664FA"/>
<path d="M104.891 33.387H108.724V37.1729H104.891V33.387Z" fill="#9664FA"/>
<path d="M111.422 33.5779V33.5302C111.422 30.8311 113.551 29.5054 116.605 29.5054C118.002 29.5054 118.997 29.7174 119.967 30.0249V29.7174C119.967 27.9409 118.877 26.9944 116.868 26.9944C115.471 26.9944 114.429 27.3019 113.294 27.7766L112.512 25.5284C113.909 24.9133 115.259 24.5103 117.244 24.5103C119.113 24.5103 120.51 25.0059 121.385 25.9076C122.308 26.8063 122.735 28.132 122.735 29.7651V37.1728H119.943V35.6112C119.092 36.6294 117.79 37.4325 115.874 37.4325C113.53 37.4325 111.425 36.083 111.425 33.5749L111.422 33.5779ZM120.012 32.6762V31.8253C119.277 31.5417 118.307 31.3297 117.172 31.3297C115.327 31.3297 114.237 32.1119 114.237 33.4137V33.4615C114.237 34.6677 115.303 35.3544 116.677 35.3544C118.57 35.3544 120.015 34.2646 120.015 32.6792L120.012 32.6762Z" fill="#9664FA"/>
<path d="M124.887 24.6775H127.774V37.1758H124.887V24.6775Z" fill="#9664FA"/>
<path opacity="0.6" d="M127.778 20.3213H124.75V22.9995H127.778V20.3213Z" fill="#5400FE"/>
</svg>
